<?xml version="1.0" encoding="utf-8"?>
<!-- Generator: Adobe Illustrator 19.0.0, SVG Export Plug-In . SVG Version: 6.00 Build 0)  -->
<svg version="1.1" id="Layer_1" xmlns="http://www.w3.org/2000/svg" xmlns:xlink="http://www.w3.org/1999/xlink" x="0px" y="0px"
	 viewBox="0 0 134.6 109.7" style="enable-background:new 0 0 134.6 109.7;" xml:space="preserve">
<style type="text/css">
	.st0{fill:#FFFFFF;}
</style>
<g>
	<path class="st0" d="M13.3,57.3c-0.5,0-0.8-0.4-0.8-0.9c0-1.3,1.5-2.1,2.2-2.1c0.3,0,0.5,0.2,0.5,0.5c0,0.9-1.6,1.3-2,1.3
		c-0.1,0.2-0.2,0.3-0.2,0.7c0,0.2,0.1,0.4,0.3,0.4c1,0,2.4-1.6,2.7-2.1l0.1,0.1C15.8,55.6,14.3,57.3,13.3,57.3 M14.5,54.5
		c-0.3,0-0.7,0.5-1.2,1.5c0.5,0,1.4-0.9,1.4-1.3C14.7,54.5,14.6,54.5,14.5,54.5"/>
</g>
<g>
	<path class="st0" d="M16.4,56.8c-0.2,0.3-0.6,0.5-1.1,0.5c-0.5,0-0.8-0.3-0.8-0.7c0-0.3,0.2-0.5,0.5-0.5c0.3,0,0.5,0.3,0.7,0.4
		c0.3-0.2,0.4-0.6,0.4-0.8c0-0.2-0.2-0.5-0.2-0.9c0-0.4,0.2-0.9,0.5-0.9c0.1,0,0.2,0.1,0.2,0.2c0,0.3-0.2,0.5-0.3,0.7
		c0,0,0.3,0.6,0.3,1c0,0.3-0.1,0.8-0.2,0.9c0.6-0.1,1.1-0.3,1.9-1.6l0.1,0.1C17.5,56.6,17,56.7,16.4,56.8 M15.1,56.3
		c-0.1,0-0.2,0.1-0.2,0.2c0,0.2,0.1,0.2,0.3,0.3c0.2,0,0.3,0,0.4-0.1C15.4,56.6,15.2,56.3,15.1,56.3 M16.4,54
		c-0.1,0-0.2,0.2-0.2,0.4c0,0.1,0,0.2,0.1,0.3c0.2-0.3,0.2-0.4,0.2-0.6C16.5,54,16.5,54,16.4,54"/>
</g>
<g>
	<path class="st0" d="M19.8,56.3c-0.6,0.8-1.2,1-1.7,1c-0.3,0-0.5-0.3-0.5-0.6c0-0.3,0.1-0.4,0.2-0.7l0.8-1.5h-0.7l0.2-0.1h0.8
		c0.6-0.4,0.8-0.6,1.5-1.7h0.1l-1,1.7h0.7l-0.1,0.1h-0.7l-1,1.7c-0.1,0.2-0.2,0.4-0.2,0.5c0,0.1,0.1,0.4,0.3,0.4
		C18.8,57.1,19.4,56.6,19.8,56.3c-0.1-0.1,0.5-0.9,0.8-1.3l0.1,0.1C20.3,55.6,19.8,56.3,19.8,56.3"/>
</g>
<g>
	<path class="st0" d="M21,57.3c-0.2,0-0.4-0.2-0.4-0.5c0-0.3,0.3-0.6,0.6-0.6c0.2,0,0.4,0.2,0.4,0.5C21.6,57,21.3,57.3,21,57.3"/>
</g>
<g>
	<path class="st0" d="M114.4,56c-0.4,0.2-0.9,0.6-0.9,0.7c0.1,0,0.5-0.1,0.7-0.1c0.4,0,0.7,0.1,1,0.1c0.2,0,0.4-0.1,0.8-0.4
		c0.1,0.3-0.5,1-1.1,1c-0.4,0-0.7-0.2-1-0.2c-0.8,0-0.8,0.1-0.9,0.1c0,0,0,0-0.1-0.1v0c0-0.2,0.5-0.7,0.7-0.8c0.5-0.4,1.7-1,1.9-1.2
		c0.5-0.4,0.9-1.1,0.9-1.4c0-0.3-0.3-0.6-0.7-0.6c-0.4,0-0.9,0.4-0.9,0.8c0,0.2,0.1,0.3,0.3,0.3c0.1,0,0.2-0.1,0.2-0.2
		c0-0.1,0-0.2-0.1-0.2c0.4-0.1,0.4,0.2,0.4,0.3c0,0.2-0.2,0.4-0.5,0.4c-0.3,0-0.5-0.2-0.5-0.5c0-0.5,0.6-1.1,1.3-1.1
		c0.6,0,0.9,0.4,0.9,0.9C117,55.3,115.1,55.7,114.4,56"/>
</g>
<g>
	<path class="st0" d="M118,57.3c-0.5,0-0.9-0.4-0.9-0.9c0-1.2,1.4-3.5,2.8-3.5c0.5,0,0.9,0.2,0.9,0.8
		C120.8,55.1,119.5,57.3,118,57.3 M119.9,53c-0.7,0-2.4,2.8-2.4,3.8c0,0.2,0.2,0.5,0.5,0.5c0.9,0,2.3-2.6,2.3-3.7
		C120.3,53.1,120.1,53,119.9,53"/>
</g>
<g>
	<path class="st0" d="M121.7,55.9c-0.4,0.7-0.5,1.4-0.6,1.5c0,0-0.5,0-0.5,0s-0.2,0.2-0.3,0.3c0.3-0.9,0.3-1,0.5-1.3
		c0.4-0.7,1.5-2,1.4-2c-0.1,0-0.7,0.6-0.7,0.6l-0.2,0.1c0.1-0.1,1.6-1.7,1.9-1.7c0.1,0,0,0,0,0C123.3,53.5,122.2,54.9,121.7,55.9"/>
</g>
<g>
	<path class="st0" d="M126.5,53.2c-0.2,0.2-0.5,0.4-0.6,0.4c-0.4,0-0.7-0.1-1-0.1c-0.2,0-0.4,0.1-0.5,0.2l-0.4,0.8
		c0.2-0.1,0.5-0.1,0.7-0.1c0.5,0,0.9,0.5,0.9,1c0,1-1,1.9-2,1.9c-0.5,0-0.9-0.3-0.9-0.8c0-0.4,0.3-0.7,0.7-0.7
		c0.3,0,0.5,0.2,0.5,0.5c0,0.2-0.2,0.4-0.4,0.4c-0.1,0-0.2-0.1-0.2-0.2c0.2,0,0.2-0.1,0.2-0.2c0-0.1-0.1-0.2-0.3-0.2
		c-0.2,0-0.4,0.2-0.4,0.5c0,0.4,0.3,0.6,0.7,0.6c0.8,0,1.6-1.4,1.6-2c0-0.4-0.2-0.7-0.6-0.7c-0.4,0-0.6,0.5-0.7,0.5
		c0,0,0-0.1,0.1-0.3l0.8-1.3c0.2-0.3,0.5-0.4,0.7-0.4c0.3,0,0.5,0.2,0.7,0.2c0.3,0,0.6-0.2,0.7-0.2c0,0,0,0,0,0
		C126.6,53.1,126.6,53.2,126.5,53.2"/>
</g>
<g>
	<path class="st0" d="M67.7,95.7c-22.3,0-40.4-18.1-40.4-40.4c0-22.3,18.1-40.4,40.4-40.4c22.3,0,40.4,18.1,40.4,40.4
		C108.1,77.6,90,95.7,67.7,95.7 M67.7,20.2c-19.4,0-35.1,15.8-35.1,35.1s15.8,35.1,35.1,35.1c19.4,0,35.1-15.8,35.1-35.1
		S87.1,20.2,67.7,20.2"/>
</g>
<g>
	<path class="st0" d="M25.6,48.1L24,47.9c3.1-18.6,17.7-33.2,36.3-36.3l0.3,1.6C42.7,16.2,28.6,30.2,25.6,48.1"/>
</g>
<g>
	<path class="st0" d="M109.9,48.1c-3-17.9-17.1-31.9-35-35l0.3-1.6c18.6,3.1,33.2,17.7,36.3,36.3L109.9,48.1z"/>
</g>
<g>
	<path class="st0" d="M60.3,99.1C41.7,95.9,27.1,81.3,24,62.8l1.6-0.3c3,17.9,17.1,31.9,35,35L60.3,99.1z"/>
</g>
<g>
	<path class="st0" d="M75.2,99.1l-0.3-1.6c17.9-3,31.9-17.1,35-35l1.6,0.3C108.3,81.3,93.8,95.9,75.2,99.1"/>
</g>
<g>
	<line class="st0" x1="5" y1="48.7" x2="22.9" y2="48.7"/>
</g>
<g>
	<path id="XMLID_9_" class="st0" d="M22.9,49.2H5c-0.3,0-0.5-0.2-0.5-0.5s0.2-0.5,0.5-0.5h17.9c0.3,0,0.5,0.2,0.5,0.5
		S23.2,49.2,22.9,49.2z"/>
</g>
<g>
	<line class="st0" x1="1.1" y1="46.7" x2="19" y2="46.7"/>
</g>
<g>
	<path id="XMLID_8_" class="st0" d="M19,47.2H1.1c-0.3,0-0.5-0.2-0.5-0.5s0.2-0.5,0.5-0.5H19c0.3,0,0.5,0.2,0.5,0.5
		S19.3,47.2,19,47.2z"/>
</g>
<g>
	<line class="st0" x1="5" y1="61.9" x2="22.9" y2="61.9"/>
</g>
<g>
	<path id="XMLID_7_" class="st0" d="M22.9,62.4H5c-0.3,0-0.5-0.2-0.5-0.5s0.2-0.5,0.5-0.5h17.9c0.3,0,0.5,0.2,0.5,0.5
		S23.2,62.4,22.9,62.4z"/>
</g>
<g>
	<line class="st0" x1="1.1" y1="63.9" x2="19" y2="63.9"/>
</g>
<g>
	<path id="XMLID_6_" class="st0" d="M19,64.4H1.1c-0.3,0-0.5-0.2-0.5-0.5s0.2-0.5,0.5-0.5H19c0.3,0,0.5,0.2,0.5,0.5
		S19.3,64.4,19,64.4z"/>
</g>
<g>
	<line class="st0" x1="130.2" y1="61.9" x2="112.3" y2="61.9"/>
</g>
<g>
	<path id="XMLID_5_" class="st0" d="M130.2,62.4h-17.9c-0.3,0-0.5-0.2-0.5-0.5s0.2-0.5,0.5-0.5h17.9c0.3,0,0.5,0.2,0.5,0.5
		S130.5,62.4,130.2,62.4z"/>
</g>
<g>
	<line class="st0" x1="134.1" y1="63.9" x2="116.3" y2="63.9"/>
</g>
<g>
	<path id="XMLID_4_" class="st0" d="M134.1,64.4h-17.9c-0.3,0-0.5-0.2-0.5-0.5s0.2-0.5,0.5-0.5h17.9c0.3,0,0.5,0.2,0.5,0.5
		S134.4,64.4,134.1,64.4z"/>
</g>
<g>
	<line class="st0" x1="130.2" y1="48.7" x2="112.3" y2="48.7"/>
</g>
<g>
	<path id="XMLID_3_" class="st0" d="M130.2,49.2h-17.9c-0.3,0-0.5-0.2-0.5-0.5s0.2-0.5,0.5-0.5h17.9c0.3,0,0.5,0.2,0.5,0.5
		S130.5,49.2,130.2,49.2z"/>
</g>
<g>
	<line class="st0" x1="134.1" y1="46.7" x2="116.3" y2="46.7"/>
</g>
<g>
	<path id="XMLID_2_" class="st0" d="M134.1,47.2h-17.9c-0.3,0-0.5-0.2-0.5-0.5s0.2-0.5,0.5-0.5h17.9c0.3,0,0.5,0.2,0.5,0.5
		S134.4,47.2,134.1,47.2z"/>
</g>
<g>
	<path class="st0" d="M97.4,66.8c-1.8,0-2.9-0.6-3.6-2c-0.7-1.5-1.4-3.4-2-5.2l-9.9-26.7c-0.2-0.4-0.3-0.9-0.5-1.3
		c-0.1-0.2-0.2-0.2-0.4-0.2c-0.2,0-0.3,0.1-0.4,0.1c-1,0.6-3.2,1.6-4.9,2.2L85,61.7c0.6,1.6,1.1,3,1.1,3.7c0,0.7-0.6,1.3-1.3,1.3
		c-0.9,0-1.5-0.9-2-1.8c-0.7-1.5-1.4-3.4-2-5.2l-9.9-26.7c-0.2-0.4-0.3-0.9-0.5-1.3c-0.1-0.2-0.2-0.2-0.4-0.2
		c-0.2,0-0.3,0.1-0.4,0.1c-1,0.6-3.2,1.6-4.9,2.2L74,61.7c0.6,1.6,1.1,3,1.1,3.7c0,0.7-0.6,1.3-1.3,1.3c-0.9,0-1.5-0.9-2-1.8
		c-0.7-1.5-1.4-3.4-2-5.2l-9.9-26.7c-0.2-0.4-0.3-0.9-0.5-1.3c-0.1-0.2-0.2-0.2-0.4-0.2c-0.2,0-0.3,0.1-0.4,0.1
		c-1,0.6-3.2,1.6-4.9,2.2c-0.3,1.9-1.3,4.4-2,6.3l-8.6,23.4c-0.8,2.1-2.6,3.3-4.7,3.3h-0.3v1.5c1.9-0.1,3.9-0.2,5.8-0.2
		c2.2,0,4.4,0.1,6.5,0.2v-1.5h-0.6c-1.8,0-4.1-0.3-4.1-1.8c0-0.9,0.6-2.2,1.2-4l7.8-22.6h0.1l8.2,23.2c0.6,1.6,1.1,3,1.1,3.7
		c0,1.3-2.1,1.5-3.4,1.5h-0.6v1.5c2.8-0.1,5.5-0.2,8.1-0.2h22.1c2.6,0,5,0.1,7.5,0.2v-1.5H97.4z"/>
</g>
<g>
	<path class="st0" d="M43.4,68.7C43.5,68.7,43.5,68.7,43.4,68.7l0.3,1.3c0,0-0.1,0-0.2,0c0,0-0.1,0-0.1,0c-0.1-0.4-0.4-0.8-0.7-0.8
		h-0.6v3.1c0,0.3,0,0.5,0.1,0.6c0,0.1,0.3,0.1,0.4,0.1c0,0,0,0.2,0,0.2c-0.3,0-0.7,0-1,0c-0.3,0-0.7,0-0.9,0c0,0,0-0.2,0-0.2
		c0.1,0,0.4,0,0.4-0.1c0.1-0.1,0.1-0.3,0.1-0.6v-3.1h-0.6c-0.3,0-0.7,0.4-0.7,0.8c0,0,0,0-0.1,0c-0.1,0-0.2,0-0.2,0l0.2-1.2
		c0,0,0,0,0.1,0c0.1,0,0.2,0.1,0.7,0.1h2.2C43.2,68.9,43.3,68.7,43.4,68.7"/>
</g>
<g>
	<path class="st0" d="M46.6,68.8c0,0,0,0.2,0,0.2c-0.1,0-0.4,0-0.4,0.1c-0.1,0.1-0.1,0.3-0.1,0.6v1c0,0,0,0,0,0c0.3,0,0.5,0,0.8,0
		c0.2,0,0.5,0,0.8,0c0,0,0,0,0,0l0-0.9c0-0.3,0-0.5-0.1-0.6c0-0.1-0.3-0.1-0.4-0.1c0,0,0-0.2,0-0.2c0.3,0,0.7,0,1,0s0.7,0,0.9,0
		c0,0,0,0.2,0,0.2c-0.1,0-0.4,0-0.4,0.1c-0.1,0.1-0.1,0.3-0.1,0.6v2.5c0,0.3,0,0.5,0.1,0.6c0,0.1,0.3,0.1,0.4,0.1c0,0,0,0.2,0,0.2
		c-0.3,0-0.7,0-1,0c-0.3,0-0.7,0-0.9,0c0,0,0-0.2,0-0.2c0.1,0,0.4,0,0.4-0.1c0.1-0.1,0.1-0.3,0.1-0.6v-1.1c0,0,0,0,0,0
		c-0.2,0-0.5,0-0.8,0c-0.7,0-0.8,0-0.8,0c0,0,0,0,0,0v1.1c0,0.3,0,0.5,0.1,0.6c0,0.1,0.3,0.1,0.4,0.1c0,0,0,0.2,0,0.2
		c-0.3,0-0.7,0-1,0s-0.7,0-0.9,0c0,0,0-0.2,0-0.2c0.1,0,0.4,0,0.4-0.1c0.1-0.1,0.1-0.3,0.1-0.6v-2.5c0-0.3,0-0.5-0.1-0.6
		c0-0.1-0.3-0.1-0.4-0.1c0,0,0-0.2,0-0.2c0.3,0,0.7,0,1,0C45.9,68.9,46.3,68.9,46.6,68.8"/>
</g>
<g>
	<path class="st0" d="M53.4,68.8c0,0.3,0.1,0.7,0.2,1c0,0-0.1,0-0.2,0s-0.1,0-0.1-0.1c-0.1-0.4-0.3-0.7-0.7-0.7h-0.6
		c-0.2,0-0.3,0-0.3,0.1c0,0.1,0,0.2,0,0.4v1.2c0,0,0.1,0.1,0.3,0.1h0.4c0.4,0,0.5-0.1,0.6-0.5c0,0,0-0.1,0.1-0.1s0.1,0,0.1,0v1.3
		c0,0-0.1,0-0.1,0s-0.1,0-0.1-0.1c-0.1-0.3-0.2-0.4-0.2-0.4c-0.1,0-0.3,0-0.5,0c-0.2,0-0.5,0-0.5,0.1v1c0,0,0,0.4,0.1,0.5
		c0,0.1,0.3,0.1,0.4,0.1h0.4c0.3,0,0.5-0.1,0.6-0.2c0.1-0.1,0.2-0.3,0.4-0.6c0,0,0,0,0.1,0c0.1,0,0.2,0,0.2,0
		c-0.1,0.4-0.3,0.9-0.4,1.2c-0.3,0-3,0-3.3,0c0,0,0-0.2,0-0.2c0.1,0,0.4,0,0.4-0.1c0.1-0.1,0.1-0.3,0.1-0.6v-2.5
		c0-0.3,0-0.5-0.1-0.6c0-0.1-0.3-0.1-0.4-0.1c0,0,0-0.2,0-0.2c0.3,0,0.7,0,1,0C51.5,68.9,53.1,68.8,53.4,68.8"/>
</g>
<g>
	<path class="st0" d="M59.5,69.1c0-0.1,0.2-0.3,0.2-0.3c0.1,0,0.1,0,0.1,0l1.4,3.4c0.1,0.2,0.1,0.3,0.2,0.5c0.1,0.3,0.5,0.3,0.5,0.3
		c0,0.1,0,0.2,0,0.2c-0.3,0-0.6-0.1-0.9-0.1c-0.3,0-0.8,0-1,0.1c0,0,0-0.2,0-0.2c0.1,0,0.3,0,0.4-0.1c0,0,0.1-0.1,0.1-0.1
		c0-0.1-0.4-1-0.4-1s0,0,0,0c-0.3,0-0.5,0-0.6,0c-0.3,0-0.5,0-0.7,0c0,0,0,0,0,0c0,0-0.2,0.4-0.2,0.6c-0.1,0.2-0.1,0.4-0.1,0.5
		c0,0.2,0.5,0.2,0.5,0.2c0,0,0,0.2,0,0.2c-0.2,0-0.4-0.1-0.7-0.1c-0.3,0-0.5,0-0.7,0.1c0,0,0-0.2,0-0.2c0.1,0,0.4-0.1,0.5-0.2
		c0.1-0.2,0.2-0.3,0.2-0.5L59.5,69.1z M58.8,71.4C58.8,71.4,58.8,71.4,58.8,71.4c0.1,0,0.4,0,0.6,0c0.2,0,0.3,0,0.5,0c0,0,0,0,0,0
		l-0.6-1.3L58.8,71.4z"/>
</g>
<g>
	<path class="st0" d="M64.3,72.9c0,0.1,0.3,0.1,0.4,0.1h0.4c0.3,0,0.5-0.1,0.6-0.2c0.1-0.1,0.2-0.3,0.4-0.6c0,0,0,0,0.1,0
		c0.1,0,0.2,0,0.2,0c-0.1,0.4-0.3,0.9-0.4,1.2h-2.3c-0.5,0-0.9,0-1,0c0,0,0-0.2,0-0.2c0.1,0,0.4,0,0.4-0.1c0.1-0.1,0.1-0.3,0.1-0.6
		v-2.5c0-0.3,0-0.5-0.1-0.6c0-0.1-0.3-0.1-0.4-0.1c0,0,0-0.2,0-0.2c0.3,0,0.7,0,1,0c0.3,0,0.7,0,0.9,0c0,0,0,0.2,0,0.2
		c-0.1,0-0.4,0-0.4,0.1c-0.1,0.1-0.1,0.3-0.1,0.6v2.5C64.3,72.4,64.3,72.7,64.3,72.9"/>
</g>
<g>
	<path class="st0" d="M68.9,72.9c0,0.1,0.3,0.1,0.4,0.1h0.4c0.3,0,0.5-0.1,0.6-0.2c0.1-0.1,0.2-0.3,0.4-0.6c0,0,0,0,0.1,0
		c0.1,0,0.2,0,0.2,0c-0.1,0.4-0.3,0.9-0.4,1.2h-2.3c-0.5,0-0.9,0-1,0c0,0,0-0.2,0-0.2c0.1,0,0.4,0,0.4-0.1c0.1-0.1,0.1-0.3,0.1-0.6
		v-2.5c0-0.3,0-0.5-0.1-0.6c0-0.1-0.3-0.1-0.4-0.1c0,0,0-0.2,0-0.2c0.3,0,0.7,0,1,0c0.3,0,0.7,0,0.9,0c0,0,0,0.2,0,0.2
		c-0.1,0-0.4,0-0.4,0.1c-0.1,0.1-0.1,0.3-0.1,0.6v2.5C68.8,72.4,68.8,72.7,68.9,72.9"/>
</g>
<g>
	<path class="st0" d="M73.9,68.8c0,0,0,0.2,0,0.2c-0.1,0-0.4,0-0.4,0.1c-0.1,0.1-0.1,0.3-0.1,0.6v2.5c0,0.3,0,0.5,0.1,0.6
		c0,0.1,0.3,0.1,0.4,0.1c0,0,0,0.2,0,0.2c-0.3,0-0.7,0-1,0c-0.3,0-0.7,0-0.9,0c0,0,0-0.2,0-0.2c0.1,0,0.4,0,0.4-0.1
		c0.1-0.1,0.1-0.3,0.1-0.6v-2.5c0-0.3,0-0.5-0.1-0.6c0-0.1-0.3-0.1-0.4-0.1c0,0,0-0.2,0-0.2c0.3,0,0.7,0,1,0S73.6,68.9,73.9,68.8"/>
</g>
<g>
	<path class="st0" d="M76.9,69.1c0-0.1,0.2-0.3,0.2-0.3c0.1,0,0.1,0,0.1,0l1.4,3.4c0.1,0.2,0.1,0.3,0.2,0.5C79,73,79.3,73,79.4,73
		c0,0.1,0,0.2,0,0.2c-0.3,0-0.6-0.1-0.9-0.1c-0.3,0-0.8,0-1,0.1c0,0,0-0.2,0-0.2c0.1,0,0.3,0,0.4-0.1c0,0,0.1-0.1,0.1-0.1
		c0-0.1-0.4-1-0.4-1s0,0,0,0c-0.3,0-0.5,0-0.6,0c-0.3,0-0.5,0-0.7,0c0,0,0,0,0,0c0,0-0.2,0.4-0.2,0.6c-0.1,0.2-0.1,0.4-0.1,0.5
		c0,0.2,0.5,0.2,0.5,0.2c0,0,0,0.2,0,0.2c-0.2,0-0.4-0.1-0.7-0.1c-0.3,0-0.5,0-0.7,0.1c0,0,0-0.2,0-0.2c0.1,0,0.4-0.1,0.5-0.2
		c0.1-0.2,0.2-0.3,0.2-0.5L76.9,69.1z M76.2,71.4C76.2,71.4,76.2,71.4,76.2,71.4c0.1,0,0.4,0,0.6,0c0.2,0,0.3,0,0.5,0c0,0,0,0,0,0
		l-0.6-1.3L76.2,71.4z"/>
</g>
<g>
	<path class="st0" d="M81.8,68.8c0.3,0.5,1.3,1.7,2.1,2.8c0,0,0-0.2,0-0.3v-1.3c0-0.3,0-0.8-0.1-0.9c-0.1-0.1-0.5-0.1-0.5-0.1
		c0,0,0-0.2,0-0.2c0.3,0,0.5,0.1,0.8,0.1c0.3,0,0.6,0,0.8-0.1c0,0,0,0.2,0,0.3c-0.1,0-0.5,0-0.6,0.2c0,0.1-0.1,0.6-0.1,0.8v2.3
		c0,0.4,0,0.6,0,0.9c0,0-0.1,0-0.2,0c-0.1,0-0.1-0.1-0.2-0.2l-2.7-3.4v2.4c0,0.2,0,0.6,0.1,0.6c0,0.1,0.5,0.2,0.5,0.2
		c0,0.1,0,0.2,0,0.3c-0.3,0-0.5-0.1-0.8-0.1c-0.3,0-0.5,0-0.8,0.1c0-0.1,0-0.2,0-0.2c0.1,0,0.5-0.1,0.5-0.2c0-0.1,0.1-0.4,0.1-0.7
		v-2.4c0-0.2,0-0.5-0.1-0.6c-0.1-0.1-0.4-0.1-0.4-0.1c0,0,0-0.2,0-0.2c0.2,0,0.4,0,0.8,0C81.3,68.9,81.6,68.9,81.8,68.8"/>
</g>
<g>
	<path class="st0" d="M89.8,68.9c0,0.1,0.2,0.9,0.2,1c0,0-0.1,0.1-0.2,0.1c0,0-0.1,0-0.1,0c-0.1-0.3-0.3-0.9-1.3-0.9
		s-1.3,0.9-1.3,1.8c0,1,0.4,2.1,1.4,2.1c0.4,0,0.6-0.1,0.8-0.3c0.3-0.3,0.5-0.8,0.5-0.8c0.1,0,0.2,0,0.2,0.1c0,0.1-0.2,1-0.3,1
		c-0.4,0.2-0.9,0.3-1.5,0.3c-1.3,0-2.3-0.9-2.3-2.2c0-1.3,1-2.3,2.3-2.3C88.8,68.8,89.4,68.8,89.8,68.9"/>
</g>
<g>
	<path class="st0" d="M94.4,68.8c0,0.3,0.1,0.7,0.2,1c0,0-0.1,0-0.2,0s-0.1,0-0.1-0.1c-0.1-0.4-0.3-0.7-0.7-0.7h-0.6
		c-0.2,0-0.3,0-0.3,0.1c0,0.1,0,0.2,0,0.4v1.2c0,0,0.1,0.1,0.3,0.1h0.4c0.4,0,0.5-0.1,0.6-0.5c0,0,0-0.1,0.1-0.1c0,0,0.1,0,0.1,0
		v1.3c0,0-0.1,0-0.1,0s-0.1,0-0.1-0.1c-0.1-0.3-0.2-0.4-0.2-0.4c-0.1,0-0.3,0-0.5,0c-0.2,0-0.5,0-0.5,0.1v1c0,0,0,0.4,0.1,0.5
		c0,0.1,0.3,0.1,0.4,0.1h0.4c0.3,0,0.5-0.1,0.6-0.2c0.1-0.1,0.2-0.3,0.4-0.6c0,0,0,0,0.1,0c0.1,0,0.2,0,0.2,0
		c-0.1,0.4-0.3,0.9-0.4,1.2c-0.3,0-3,0-3.3,0c0,0,0-0.2,0-0.2c0.1,0,0.4,0,0.4-0.1c0.1-0.1,0.1-0.3,0.1-0.6v-2.5
		c0-0.3,0-0.5-0.1-0.6c0-0.1-0.3-0.1-0.4-0.1c0,0,0-0.2,0-0.2c0.3,0,0.7,0,1,0C92.5,68.9,94,68.8,94.4,68.8"/>
</g>
<g>
	<path class="st0" d="M63.7,98.5c0-0.2,0.1-0.4,0.2-0.6c0.1-0.2,0.2-0.3,0.4-0.4c0.2-0.1,0.4-0.1,0.6-0.1c0.3,0,0.5,0,0.6,0.1
		c0.2,0.1,0.3,0.2,0.4,0.4c0.1,0.2,0.1,0.4,0.2,0.6c0,0.2,0,0.5,0,0.8c0,0.3,0,0.5,0,0.8c0,0.2-0.1,0.4-0.2,0.6
		c-0.1,0.2-0.2,0.3-0.4,0.4s-0.4,0.1-0.6,0.1c-0.3,0-0.5,0-0.6-0.1c-0.2-0.1-0.3-0.2-0.4-0.4c-0.1-0.2-0.1-0.4-0.2-0.6
		c0-0.2,0-0.5,0-0.8C63.7,99,63.7,98.7,63.7,98.5 M64.4,99.8c0,0.2,0,0.3,0.1,0.4c0,0.1,0.1,0.2,0.2,0.2c0.1,0,0.2,0.1,0.3,0.1
		s0.2,0,0.3-0.1c0.1,0,0.1-0.1,0.2-0.2c0-0.1,0.1-0.2,0.1-0.4c0-0.2,0-0.4,0-0.6c0-0.2,0-0.4,0-0.6c0-0.2,0-0.3-0.1-0.4
		c0-0.1-0.1-0.2-0.2-0.2c-0.1,0-0.2-0.1-0.3-0.1s-0.2,0-0.3,0.1c-0.1,0-0.1,0.1-0.2,0.2c0,0.1-0.1,0.2-0.1,0.4c0,0.2,0,0.4,0,0.6
		C64.4,99.5,64.4,99.7,64.4,99.8"/>
</g>
<g>
	<polygon class="st0" points="69.6,97.4 69.6,98 68.3,98 68.3,98.9 69.5,98.9 69.5,99.5 68.3,99.5 68.3,101 67.6,101 67.6,97.4 	"/>
</g>
<g>
	<polygon class="st0" points="55.3,107.2 55.3,107.2 56,103.5 57.1,103.5 55.9,108.5 54.7,108.5 53.5,103.5 54.6,103.5 	"/>
</g>
<g>
	<path class="st0" d="M58.8,105c0-0.3,0.1-0.6,0.2-0.8c0.1-0.2,0.3-0.4,0.5-0.5c0.2-0.1,0.5-0.2,0.9-0.2c0.4,0,0.7,0.1,0.9,0.2
		c0.2,0.1,0.4,0.3,0.5,0.5c0.1,0.2,0.2,0.5,0.2,0.8c0,0.3,0.1,0.7,0.1,1c0,0.4,0,0.7-0.1,1c0,0.3-0.1,0.6-0.2,0.8
		c-0.1,0.2-0.3,0.4-0.5,0.5c-0.2,0.1-0.5,0.2-0.9,0.2c-0.4,0-0.7-0.1-0.9-0.2c-0.2-0.1-0.4-0.3-0.5-0.5c-0.1-0.2-0.2-0.5-0.2-0.8
		c0-0.3-0.1-0.7-0.1-1C58.7,105.6,58.7,105.3,58.8,105 M59.7,106.8c0,0.2,0,0.4,0.1,0.6c0,0.1,0.1,0.3,0.2,0.3
		c0.1,0.1,0.2,0.1,0.4,0.1c0.1,0,0.3,0,0.4-0.1s0.2-0.2,0.2-0.3c0-0.1,0.1-0.3,0.1-0.6c0-0.2,0-0.5,0-0.8c0-0.3,0-0.6,0-0.8
		c0-0.2,0-0.4-0.1-0.6c0-0.1-0.1-0.3-0.2-0.3c-0.1-0.1-0.2-0.1-0.4-0.1c-0.1,0-0.3,0-0.4,0.1c-0.1,0.1-0.2,0.2-0.2,0.3
		c0,0.1-0.1,0.3-0.1,0.6c0,0.2,0,0.5,0,0.8C59.7,106.3,59.7,106.6,59.7,106.8"/>
</g>
<g>
	<rect x="64.1" y="103.5" class="st0" width="1" height="4.9"/>
</g>
<g>
	<path class="st0" d="M69.2,104.4c-0.1-0.2-0.2-0.2-0.5-0.2c-0.1,0-0.2,0-0.3,0.1s-0.1,0.2-0.2,0.3c0,0.2-0.1,0.3-0.1,0.6
		c0,0.2,0,0.5,0,0.9c0,0.4,0,0.7,0,0.9c0,0.2,0.1,0.4,0.1,0.5c0.1,0.1,0.1,0.2,0.2,0.3c0.1,0,0.2,0.1,0.3,0.1c0.1,0,0.2,0,0.2,0
		c0.1,0,0.1-0.1,0.2-0.2c0.1-0.1,0.1-0.2,0.1-0.4c0-0.2,0-0.4,0-0.6h1c0,0.3,0,0.5-0.1,0.8c0,0.2-0.1,0.4-0.2,0.6
		c-0.1,0.2-0.3,0.3-0.5,0.4c-0.2,0.1-0.5,0.2-0.8,0.2c-0.4,0-0.7-0.1-0.9-0.2c-0.2-0.1-0.4-0.3-0.5-0.5c-0.1-0.2-0.2-0.5-0.2-0.8
		c0-0.3-0.1-0.7-0.1-1c0-0.4,0-0.7,0.1-1c0-0.3,0.1-0.6,0.2-0.8c0.1-0.2,0.3-0.4,0.5-0.5c0.2-0.1,0.5-0.2,0.9-0.2
		c0.4,0,0.6,0.1,0.8,0.2c0.2,0.1,0.4,0.3,0.5,0.4c0.1,0.2,0.2,0.4,0.2,0.6c0,0.2,0,0.4,0,0.6h-1C69.3,104.8,69.3,104.6,69.2,104.4"
		/>
</g>
<g>
	<polygon class="st0" points="75.1,104.3 73.3,104.3 73.3,105.5 75,105.5 75,106.3 73.3,106.3 73.3,107.6 75.2,107.6 75.2,108.5 
		72.3,108.5 72.3,103.5 75.1,103.5 	"/>
</g>
<g>
	<path class="st0" d="M77.8,107.1c0,0.1,0,0.2,0,0.3c0,0.1,0.1,0.2,0.1,0.2c0.1,0.1,0.1,0.1,0.2,0.2c0.1,0,0.2,0.1,0.3,0.1
		c0.2,0,0.3,0,0.4-0.1c0.1-0.1,0.2-0.3,0.2-0.5c0-0.1,0-0.2,0-0.3s-0.1-0.2-0.1-0.2c-0.1-0.1-0.2-0.1-0.3-0.2
		c-0.1-0.1-0.3-0.1-0.4-0.2c-0.2-0.1-0.4-0.2-0.6-0.2c-0.2-0.1-0.3-0.2-0.4-0.3c-0.1-0.1-0.2-0.3-0.2-0.4c-0.1-0.2-0.1-0.3-0.1-0.5
		c0-0.5,0.1-0.9,0.4-1.1c0.3-0.2,0.6-0.4,1.1-0.4c0.2,0,0.4,0,0.6,0.1c0.2,0,0.3,0.1,0.5,0.2c0.1,0.1,0.2,0.2,0.3,0.4
		c0.1,0.2,0.1,0.4,0.1,0.6v0.1h-1c0-0.2,0-0.4-0.1-0.5c-0.1-0.1-0.2-0.2-0.4-0.2c-0.1,0-0.2,0-0.3,0c-0.1,0-0.1,0.1-0.2,0.1
		s-0.1,0.1-0.1,0.2c0,0.1,0,0.1,0,0.2c0,0.2,0,0.3,0.1,0.4c0.1,0.1,0.2,0.2,0.4,0.3l0.8,0.3c0.2,0.1,0.3,0.2,0.5,0.3
		c0.1,0.1,0.2,0.2,0.3,0.3c0.1,0.1,0.1,0.2,0.1,0.3s0,0.3,0,0.4c0,0.5-0.2,0.9-0.5,1.1c-0.3,0.2-0.7,0.4-1.3,0.4
		c-0.6,0-1-0.1-1.2-0.4c-0.2-0.2-0.4-0.6-0.4-1.1v-0.2h1V107.1z"/>
</g>
<g>
	<path class="st0" d="M47.8,7.4c-0.2-0.1-0.4-0.1-0.6,0C47.1,7.5,47,7.5,47,7.6c-0.1,0.1-0.1,0.2-0.1,0.4c0,0.2,0.1,0.4,0.1,0.6
		c0.1,0.2,0.2,0.5,0.3,0.8c0.2,0.3,0.3,0.6,0.4,0.8c0.1,0.2,0.2,0.3,0.3,0.4c0.1,0.1,0.2,0.1,0.3,0.1c0.1,0,0.2,0,0.3-0.1
		c0.1,0,0.2-0.1,0.2-0.2c0.1-0.1,0.1-0.1,0.1-0.3s0-0.2,0-0.4c0-0.2-0.1-0.4-0.2-0.6l1-0.5c0.1,0.2,0.2,0.5,0.2,0.7
		c0.1,0.2,0.1,0.5,0,0.7c0,0.2-0.2,0.4-0.3,0.6c-0.2,0.2-0.4,0.4-0.8,0.5c-0.4,0.2-0.7,0.3-1,0.2c-0.3,0-0.5-0.1-0.7-0.2
		c-0.2-0.2-0.4-0.4-0.6-0.6c-0.2-0.3-0.3-0.6-0.5-0.9c-0.2-0.3-0.3-0.7-0.4-1c-0.1-0.3-0.1-0.6-0.1-0.8c0-0.3,0.1-0.5,0.3-0.7
		c0.2-0.2,0.5-0.4,0.8-0.6c0.4-0.2,0.7-0.2,0.9-0.2c0.3,0,0.5,0.1,0.7,0.2c0.2,0.1,0.3,0.3,0.4,0.4c0.1,0.2,0.2,0.3,0.3,0.5l-1,0.5
		C48.1,7.7,48,7.5,47.8,7.4"/>
</g>
<g>
	<path class="st0" d="M51.5,6.5c-0.1-0.3-0.1-0.6,0-0.9c0.1-0.3,0.2-0.5,0.4-0.7c0.2-0.2,0.5-0.4,0.9-0.5s0.7-0.2,1-0.1
		c0.3,0,0.5,0.2,0.7,0.3c0.2,0.2,0.4,0.4,0.5,0.7c0.1,0.3,0.3,0.6,0.4,1c0.1,0.4,0.2,0.7,0.3,1c0.1,0.3,0.1,0.6,0,0.9
		c-0.1,0.3-0.2,0.5-0.4,0.7c-0.2,0.2-0.5,0.3-0.9,0.5c-0.4,0.1-0.7,0.2-1,0.1s-0.5-0.1-0.7-0.3c-0.2-0.2-0.4-0.4-0.5-0.7
		c-0.1-0.3-0.3-0.6-0.4-1C51.7,7.2,51.6,6.8,51.5,6.5 M53.1,8c0.1,0.2,0.2,0.4,0.3,0.5c0.1,0.1,0.2,0.2,0.3,0.2c0.1,0,0.3,0,0.4,0
		c0.2-0.1,0.3-0.1,0.4-0.2c0.1-0.1,0.1-0.2,0.1-0.4c0-0.2,0-0.3-0.1-0.6c-0.1-0.2-0.1-0.5-0.2-0.8c-0.1-0.3-0.2-0.6-0.3-0.8
		c-0.1-0.2-0.2-0.4-0.3-0.5c-0.1-0.1-0.2-0.2-0.3-0.2c-0.1,0-0.3,0-0.4,0c-0.2,0-0.3,0.1-0.4,0.2c-0.1,0.1-0.1,0.2-0.1,0.4
		c0,0.2,0,0.3,0.1,0.6c0.1,0.2,0.1,0.5,0.2,0.8C53,7.5,53.1,7.8,53.1,8"/>
</g>
<g>
	<path class="st0" d="M59.8,3l2.3,4.6l-1.2,0.2l-0.4-1L59,7.1L59,8.1l-1.2,0.2l0.6-5.1L59.8,3z M60.2,6l-0.9-2.1l0,0l-0.1,2.3
		L60.2,6z"/>
</g>
<g>
	<polygon class="st0" points="63.6,2.5 64.8,2.4 65,6.5 67,6.4 67,7.2 63.9,7.4 	"/>
</g>
<g>
	
		<rect x="69.2" y="2.4" transform="matrix(-0.9989 -4.698553e-02 4.698553e-02 -0.9989 139.1438 12.9638)" class="st0" width="1.1" height="4.9"/>
</g>
<g>
	<polygon class="st0" points="76.3,3.9 75.1,3.8 74.5,7.8 73.4,7.7 74,3.6 72.8,3.4 72.9,2.6 76.4,3.1 	"/>
</g>
<g>
	<rect x="78.2" y="3.8" transform="matrix(-0.968 -0.2509 0.2509 -0.968 153.4937 32.0135)" class="st0" width="1.1" height="4.9"/>
</g>
<g>
	<path class="st0" d="M82.1,6.1c0.1-0.3,0.3-0.5,0.5-0.7c0.2-0.2,0.4-0.3,0.7-0.3c0.3,0,0.6,0,1,0.2s0.7,0.3,0.9,0.5
		c0.2,0.2,0.3,0.4,0.4,0.7c0,0.3,0,0.5,0,0.9c-0.1,0.3-0.2,0.6-0.3,1c-0.1,0.4-0.3,0.7-0.4,1c-0.1,0.3-0.3,0.5-0.5,0.7
		c-0.2,0.2-0.4,0.3-0.7,0.3c-0.3,0-0.6,0-1-0.2s-0.7-0.3-0.9-0.5c-0.2-0.2-0.3-0.4-0.4-0.7c0-0.3,0-0.5,0-0.8c0.1-0.3,0.2-0.6,0.3-1
		C81.8,6.7,81.9,6.4,82.1,6.1 M82.5,8.2c-0.1,0.2-0.1,0.4-0.1,0.6c0,0.2,0,0.3,0.1,0.4c0.1,0.1,0.2,0.2,0.3,0.2
		c0.2,0.1,0.3,0.1,0.4,0c0.1,0,0.2-0.1,0.3-0.2c0.1-0.1,0.2-0.3,0.3-0.5C84,8.6,84.1,8.3,84.2,8c0.1-0.3,0.2-0.6,0.3-0.8
		c0.1-0.2,0.1-0.4,0.1-0.6c0-0.2,0-0.3-0.1-0.4C84.4,6.1,84.3,6,84.1,6c-0.2-0.1-0.3-0.1-0.4,0c-0.1,0-0.2,0.1-0.3,0.2
		c-0.1,0.1-0.2,0.3-0.3,0.5c-0.1,0.2-0.2,0.5-0.3,0.8C82.6,7.7,82.5,8,82.5,8.2"/>
</g>
<g>
	<polygon class="st0" points="89.4,11.4 89.4,11.4 90.9,8.4 91.9,8.9 89.6,13.3 88.4,12.7 88.8,9 88.8,9 87.2,12 86.3,11.6 
		88.6,7.2 89.7,7.8 	"/>
</g>
</svg>
