<?xml version="1.0" encoding="utf-8"?>
<!-- Generator: Adobe Illustrator 19.0.0, SVG Export Plug-In . SVG Version: 6.00 Build 0)  -->
<svg version="1.1" id="Layer_1" xmlns="http://www.w3.org/2000/svg" xmlns:xlink="http://www.w3.org/1999/xlink" x="0px" y="0px"
	 viewBox="147 -41.7 443.5 188.6" style="enable-background:new 147 -41.7 443.5 188.6;" xml:space="preserve">
<style type="text/css">
	.st0{fill:#05050F;}
	.st1{fill:none;}
</style>
<g>
	<polygon id="XMLID_43_" class="st0" points="255.2,-18.7 249.8,-18.7 249.8,2.1 244.6,2.1 244.6,-18.7 239.1,-18.7 239.1,-23.8 
		255.2,-23.8 	"/>
</g>
<g>
	<polygon id="XMLID_42_" class="st0" points="278.3,-9.2 278.3,2.1 273.2,2.1 273.2,-9.2 267.4,-9.2 267.4,2.1 262.2,2.1 
		262.2,-9.2 262.2,-14.3 262.2,-23.8 267.4,-23.8 267.4,-14.3 273.2,-14.3 273.2,-23.8 278.3,-23.8 278.3,-14.3 	"/>
</g>
<g>
	<polygon id="XMLID_41_" class="st0" points="291.1,-18.7 291.1,-13.4 299.9,-13.4 299.9,-8.2 291.1,-8.2 291.1,-3 302,-3 302,2.1 
		291.1,2.1 285.9,2.1 285.9,-3 285.9,-8.2 285.9,-13.4 285.9,-18.7 285.9,-23.8 291.1,-23.8 302,-23.8 302,-18.7 	"/>
</g>
<g>
	<path class="st0" d="M341.4,2.1l-1.8-4.8h-7.5l-1.8,4.8h-5.5l9.8-25.9h2.5l9.8,25.9H341.4z M333.9-7.3h4l-1.9-5.2l0,0L333.9-7.3z"
		/>
</g>
<g>
	<polygon id="XMLID_38_" class="st0" points="369.3,2.1 358.3,2.1 353.1,2.1 353.1,-3 353.1,-23.8 358.3,-23.8 358.3,-3 369.3,-3 	
		"/>
</g>
<g>
	<polygon id="XMLID_37_" class="st0" points="391.9,2.1 380.9,2.1 375.8,2.1 375.8,-3 375.8,-23.8 380.9,-23.8 380.9,-3 391.9,-3 	
		"/>
</g>
<g>
	<rect id="XMLID_36_" x="397.6" y="-23.8" class="st0" width="5.2" height="25.9"/>
</g>
<g>
	<path class="st0" d="M425.2,2.1l-1.8-4.8h-7.5l-1.8,4.8h-5.5l9.8-25.9h2.5l9.8,25.9H425.2z M417.7-7.3h4l-1.9-5.2l0,0L417.7-7.3z"
		/>
</g>
<g>
	<polygon id="XMLID_33_" class="st0" points="456.2,2.1 451.1,2.1 451.1,2.2 440.2,-14.4 440.2,2.1 435,2.1 435,-23.8 440.2,-23.8 
		440.2,-23.8 440.2,-23.8 451.1,-7.3 451.1,-23.8 456.2,-23.8 	"/>
</g>
<g>
	<path id="XMLID_32_" class="st0" d="M474.2-3.1c0.8,0,1.7-0.1,2.4-0.4c0.8-0.3,1.5-0.6,2.1-1.1l4.9,2.5c-1.2,1.3-2.6,2.4-4.2,3.1
		c-1.6,0.8-3.4,1.1-5.3,1.1c-1.8,0-3.4-0.3-5-1c-1.5-0.7-2.9-1.6-4.1-2.8s-2.1-2.5-2.8-4.1c-0.7-1.6-1-3.2-1-5s0.3-3.5,1-5.1
		s1.6-3,2.8-4.1c1.2-1.2,2.5-2.1,4.1-2.8c1.5-0.7,3.2-1,5-1c1.9,0,3.7,0.4,5.3,1.1c1.6,0.8,3,1.8,4.2,3.1l-4.9,2.5
		c-0.6-0.5-1.4-0.8-2.1-1.1c-0.8-0.3-1.6-0.4-2.4-0.4c-1.1,0-2,0.2-3,0.6c-0.9,0.4-1.7,1-2.4,1.6c-0.7,0.7-1.2,1.5-1.6,2.4
		s-0.6,1.9-0.6,3l0,0v0.3c0,1.1,0.2,2,0.6,3c0.4,0.9,0.9,1.7,1.6,2.4s1.5,1.2,2.4,1.6C472.1-3.3,473.1-3.1,474.2-3.1"/>
</g>
<g>
	<polygon id="XMLID_31_" class="st0" points="495.2,-18.7 495.2,-13.4 504.1,-13.4 504.1,-8.2 495.2,-8.2 495.2,-3 506.2,-3 
		506.2,2.1 495.2,2.1 490.1,2.1 490.1,-3 490.1,-8.2 490.1,-13.4 490.1,-18.7 490.1,-23.8 495.2,-23.8 506.2,-23.8 506.2,-18.7 	"/>
</g>
<g>
	<path id="XMLID_23_" class="st0" d="M260,126.8c0.8,0,1.7-0.1,2.4-0.4c0.8-0.3,1.5-0.6,2.1-1.1l4.9,2.5c-1.2,1.3-2.6,2.4-4.2,3.1
		c-1.6,0.8-3.4,1.1-5.3,1.1c-1.8,0-3.4-0.3-5-1c-1.5-0.7-2.9-1.6-4.1-2.8s-2.1-2.5-2.8-4.1c-0.7-1.6-1-3.2-1-5s0.3-3.5,1-5.1
		s1.6-3,2.8-4.1c1.2-1.2,2.5-2.1,4.1-2.8c1.5-0.7,3.2-1,5-1c1.9,0,3.7,0.4,5.3,1.1c1.6,0.8,3,1.8,4.2,3.1l-4.9,2.5
		c-0.6-0.5-1.4-0.8-2.1-1.1c-0.8-0.3-1.6-0.4-2.4-0.4c-1.1,0-2,0.2-3,0.6c-0.9,0.4-1.7,1-2.4,1.6c-0.7,0.7-1.2,1.5-1.6,2.4
		s-0.6,1.9-0.6,3l0,0v0.1c0,1.1,0.2,2,0.6,3c0.4,0.9,0.9,1.7,1.6,2.4c0.7,0.7,1.5,1.2,2.4,1.6C258,126.6,258.9,126.8,260,126.8"/>
</g>
<g>
	<path class="st0" d="M286.7,106.1c1.8,0,3.5,0.3,5.1,1c1.6,0.7,3,1.6,4.1,2.8c1.2,1.2,2.1,2.5,2.8,4.1s1,3.3,1,5.1s-0.3,3.5-1,5
		c-0.7,1.6-1.6,2.9-2.8,4.1c-1.2,1.2-2.6,2.1-4.1,2.8c-1.6,0.7-3.3,1-5.1,1c-1.8,0-3.5-0.3-5.1-1c-1.6-0.7-3-1.6-4.1-2.8
		c-1.2-1.2-2.1-2.5-2.8-4.1s-1-3.2-1-5s0.3-3.5,1-5.1s1.6-3,2.8-4.1c1.2-1.2,2.6-2.1,4.1-2.8C283.2,106.5,284.9,106.1,286.7,106.1
		 M286.7,126.8c1.1,0,2.1-0.2,3-0.6c1-0.4,1.8-1,2.5-1.7c0.7-0.7,1.3-1.5,1.7-2.4s0.6-1.9,0.6-3s-0.2-2.1-0.6-3s-1-1.8-1.7-2.5
		c-0.7-0.7-1.5-1.3-2.5-1.7s-2-0.6-3-0.6c-1.1,0-2.1,0.2-3,0.6c-1,0.4-1.8,1-2.5,1.7c-0.7,0.7-1.3,1.5-1.7,2.5
		c-0.4,0.9-0.6,1.9-0.6,3s0.2,2.1,0.6,3c0.4,0.9,1,1.7,1.7,2.4c0.7,0.7,1.5,1.3,2.5,1.7C284.6,126.6,285.6,126.8,286.7,126.8"/>
</g>
<g>
	<polygon id="XMLID_20_" class="st0" points="327.4,106.1 327.4,132 322.3,132 322.3,114.6 315.9,123 309.7,114.7 309.7,132 
		304.5,132 304.5,106.1 309.7,106.1 315.9,114.4 322.2,106.1 322.3,106.1 322.3,106.1 	"/>
</g>
<g>
	<path class="st0" d="M341.3,106.1c1.1,0,2.1,0.2,3,0.6c0.9,0.4,1.8,1,2.5,1.7c0.7,0.7,1.3,1.5,1.7,2.5c0.4,0.9,0.6,1.9,0.6,3
		s-0.2,2.1-0.6,3c-0.4,1-1,1.8-1.7,2.5c-0.7,0.7-1.5,1.3-2.5,1.7c-0.9,0.4-1.9,0.6-3,0.6h-3.4V132h-5.2v-25.9h2.6L341.3,106.1
		L341.3,106.1z M340.6,116.6c0.7,0,1.4-0.3,1.9-0.8s0.8-1.2,0.8-1.9c0-0.8-0.3-1.4-0.8-1.9s-1.2-0.8-1.9-0.8h-2.8v5.4H340.6z"/>
</g>
<g>
	<polygon id="XMLID_17_" class="st0" points="359.3,111.3 359.3,116.5 368.1,116.5 368.1,121.7 359.3,121.7 359.3,126.9 
		370.2,126.9 370.2,132 359.3,132 354.1,132 354.1,126.9 354.1,121.7 354.1,116.5 354.1,111.3 354.1,106.1 359.3,106.1 370.2,106.1 
		370.2,111.3 	"/>
</g>
<g>
	<polygon id="XMLID_16_" class="st0" points="393.4,111.3 387.9,111.3 387.9,132 382.7,132 382.7,111.3 377.2,111.3 377.2,106.1 
		393.4,106.1 	"/>
</g>
<g>
	<rect id="XMLID_15_" x="400.2" y="106.1" class="st0" width="5.2" height="25.9"/>
</g>
<g>
	<polygon id="XMLID_14_" class="st0" points="428.3,111.3 422.8,111.3 422.8,132 417.6,132 417.6,111.3 412.1,111.3 412.1,106.1 
		428.3,106.1 	"/>
</g>
<g>
	<rect id="XMLID_13_" x="435.1" y="106.1" class="st0" width="5.2" height="25.9"/>
</g>
<g>
	<path class="st0" d="M459.1,106.1c1.8,0,3.5,0.3,5.1,1s3,1.6,4.1,2.8c1.2,1.2,2.1,2.5,2.8,4.1c0.7,1.6,1,3.3,1,5.1s-0.3,3.5-1,5
		c-0.7,1.6-1.6,2.9-2.8,4.1c-1.2,1.2-2.6,2.1-4.1,2.8c-1.6,0.7-3.3,1-5.1,1c-1.8,0-3.5-0.3-5.1-1s-3-1.6-4.1-2.8
		c-1.2-1.2-2.1-2.5-2.8-4.1c-0.7-1.6-1-3.2-1-5s0.3-3.5,1-5.1s1.6-3,2.8-4.1c1.2-1.2,2.6-2.1,4.1-2.8
		C455.6,106.5,457.3,106.1,459.1,106.1 M459.1,126.8c1.1,0,2.1-0.2,3-0.6c1-0.4,1.8-1,2.5-1.7s1.3-1.5,1.7-2.4
		c0.4-0.9,0.6-1.9,0.6-3s-0.2-2.1-0.6-3s-1-1.8-1.7-2.5s-1.5-1.3-2.5-1.7s-2-0.6-3-0.6c-1.1,0-2.1,0.2-3,0.6c-1,0.4-1.8,1-2.5,1.7
		s-1.3,1.5-1.7,2.5c-0.4,0.9-0.6,1.9-0.6,3s0.2,2.1,0.6,3s1,1.7,1.7,2.4s1.5,1.3,2.5,1.7C457,126.6,458,126.8,459.1,126.8"/>
</g>
<g>
	<polygon id="XMLID_10_" class="st0" points="498.1,132 492.9,132 492.9,132.1 482.1,115.5 482.1,132 476.9,132 476.9,106.1 
		482.1,106.1 482.1,106.1 482.1,106.1 492.9,122.6 492.9,106.1 498.1,106.1 	"/>
</g>
<g id="XMLID_1_">
	<g>
		<path id="XMLID_30_" class="st0" d="M195.5,9h1.9c2,1.3,3.6,1.9,4.6,1.9v3.9l-3.3,3.9l-1.3-0.7L187,21.5l1.3,2v0.6h-0.7l-2.6-2
			h-0.7V24l0.7,3.3h-1.3v1.3l0.6,1.3c-0.4,0-2.1,2.2-5.2,6.6c0,0.4,0.2,0.6,0.7,0.6c-1.9,10.9-3.5,17.9-4.6,21l0.7,1.3l-1.9,8.5
			l0.6,1.3l-0.6,3.9c0.4,0,0.6,0.2,0.6,0.7c-0.9,0-1.5,1.3-1.9,3.9v2.6c-0.9,0-1.3,1.1-1.3,3.3l0.7,1.3c0,0.4-0.2,0.7-0.7,0.7
			l0.7,3.3v0.6c-1.2,2.6-2.1,3.9-2.6,3.9H166c-0.7-3.7-2-6.3-3.9-7.8c-2.1-5-3.6-8.1-4.6-9.2l0.6-3.3l-0.6-6.6
			c1.6,0,2.7-5.2,3.3-15.7c1-7.5,1.8-12.3,2.6-14.4c0-2.6,0.4-4.4,1.3-5.3v-1.3c0-0.9-0.4-1.3-1.3-1.3c-0.7,0-3.5,1.1-8.6,3.3h-1.9
			c0-1-1.3-1.6-3.9-1.9c0-1.3-0.7-2-1.9-2V26c0.5-2.1,6.6-5.2,18.3-9.2c6.7-1.8,13.3-4.1,19.7-7.2c0,0.4,0.2,0.7,0.7,0.7
			c0.2-1.8,0.9-2.7,1.9-2.7v1.3h2.7c0.3-2.2,1-3.3,1.9-3.3c0.2,1,0.8,2.3,1.9,3.9L195.5,9z"/>
	</g>
	<g>
		<path class="st0" d="M206.9,16.6h6c0,0.5,1.1,1.5,3.3,2.7v0.5c-0.4,0.7-0.5,1.3-0.5,1.6h0.5l-0.5,1.1v1.1c0,0.4,0.2,0.5,0.5,0.5
			c0,0.4-0.2,0.5-0.5,0.5c0.4,3.5,1.1,5.9,2.2,7.1v4.9c2.1,12.4,3.8,18.6,4.9,18.6h2.2v1.6c0,1.5-1.3,3.5-3.8,6
			c0,3.2,0.5,7.2,1.6,12h-0.5l0.5,1.1c0,1.2-0.2,2.1-0.5,2.7l0.5,2.7c0,1.8-0.9,3.5-2.7,4.9c-1.6,0-4.2-1.6-7.7-4.9
			c-2.9,0-4.4-3.1-4.4-9.3c0-2.5-0.4-4.3-1.1-5.5c-6.2,3.3-10.4,4.9-12.6,4.9c-1.4,5.8-3.2,8.7-5.5,8.7c-2.9-4.4-5.2-6.6-7.1-6.6
			c0-1-0.4-2.1-1.1-3.3c0-1.8,1.3-4.1,3.8-7.1c1.4-6,3.6-10.7,6.6-14.2v-0.5l-0.5-1.1c3.5-2.7,6-7,7.7-13.1h1.1V32
			c1.5-3.6,2.6-8,3.3-13.1L206.9,16.6z M203.1,49.4c-0.7,1.3-1.6,4.3-2.7,8.7v1.6c4-0.9,6-1.8,6-2.7c0-0.4,0.2-0.5,0.5-0.5
			c0-0.4-0.2-0.5-0.5-0.5l0.5-2.2c0-0.5-0.4-2.2-1.1-4.9h0.5c-0.4-3.3-1-4.9-1.6-4.9c0,1.3-0.7,3.2-2.2,5.5L203.1,49.4L203.1,49.4z"
			/>
	</g>
	<g>
		<path id="XMLID_27_" class="st0" d="M244.4,19.9v0.5l-0.5,1.1L245,22h0.5l-0.5-1.1l1.1-0.5c0,0.4,0.9,1.3,2.7,2.7l0.5,3.3
			l-1.1-0.5h-0.5l0.5,1.1c-1.8,2.1-2.7,3.7-2.7,4.9l-1.1-0.5h-0.5c0.4,0.4,0.5,1.3,0.5,2.7h-0.5l0.5,1.1v0.5c0,0.8-0.2,1.5-0.5,2.2
			l0.5,1.1c-0.7,2.2-1.1,3.7-1.1,4.4l0.5,2.7l-1.1,2.2h0.5l-0.5,1.1l0.5,1.1c-0.9,0-1.8,2.6-2.7,7.7H240c0.4,0.7,0.5,1.3,0.5,1.6
			c-1.5,4.3-2.7,8.6-3.8,13.1l1.6,1.1c0.8,0,2.4-1.1,4.9-3.3c3.3-1.8,5.5-2.7,6.6-2.7l0.5,1.1v1.6c0,1-1.1,3-3.3,6
			c-4.1,5.2-9,8.4-14.8,9.8c-2.2,0-3.3-0.2-3.3-0.5v-1.6c-2.5,0-5-2.6-7.7-7.7v-1.1c0-0.4,0.2-0.5,0.5-0.5c0-0.4-0.2-0.5-0.5-0.5
			c0.7-4.3,1.6-6.5,2.7-6.6l-0.5-1.1v-1.1l1.1-1.6h-1.1c1.6-6.2,2.7-9.3,3.3-9.3l-0.5-1.1c1.5-8.5,3.1-15.1,4.9-19.7
			c0-0.4-0.2-0.5-0.5-0.5l0.5-2.7v-1.1c0-0.9-0.2-1.6-0.5-2.2c0.4-0.7,0.5-1.3,0.5-1.6v-1.7c2.9-0.9,4.4-1.9,4.4-3.3h4.5
			c0.7,0,1.1-0.4,1.1-1.1c0.7,0.4,1.3,0.5,1.6,0.5C243.4,20.1,244,19.9,244.4,19.9"/>
	</g>
	<g>
		<path id="XMLID_26_" class="st0" d="M285.5,24.8c2.6,0.4,4.3,0.7,4.9,1.1c0.7-0.4,1.4-0.5,2.2-0.5c2.7,0.4,4.2,1.2,4.4,2.2
			c-0.5,2.6-1.5,3.8-2.7,3.8c-1.5,0.2-2.2,0.7-2.2,1.6l-2.7-0.5c-4.4,2.2-10.4,4.4-18,6.6l-0.5,4.9l1.1,0.5c0.1-0.7,0.4-1.1,1.1-1.1
			c0.4,0,0.5,0.2,0.5,0.5l6-1.6c5.8,0.7,8.7,1.3,8.7,1.6c0.4,0.6,0.5,1.3,0.5,2.2v0.5c-0.7,0-2.2,0.9-4.4,2.7v0.5h-0.5
			c-0.4,0-0.5-0.2-0.5-0.5l-11.6,5c0,0.4-0.2,0.9-0.5,1.6l-1.1-0.5c-2.2,0-3.8,4-4.9,12h-0.5c0,0.4,0.2,0.5,0.5,0.5
			c-0.4,3.3-0.8,5.3-1.1,6c0.4,0,0.5,0.2,0.5,0.5c3.3,0,4.9-0.9,4.9-2.7c0.4,0,0.5,0.2,0.5,0.5c5.8-1.3,8.7-2.9,8.7-4.9h1.1
			c0,0.5,0.4,1.3,1.1,2.2V70c0,3.9-4,8.1-12,12.6c-0.8,1.1-2.6,2.2-5.5,3.3v0.5c-4-0.5-6.9-1.6-8.7-3.3h-0.5c0,0.4-0.2,0.5-0.5,0.5
			c-2.7-2.4-4.4-4.7-4.9-7.1c0.3-0.7,0.7-2.7,1.1-6h-0.5c1.5-2.7,2.2-6.7,2.2-12h1.1l-0.5-1.1v-1.1c0.1-1.8,0.4-2.7,1.1-2.7
			c-0.7-1.2-1.1-2.1-1.1-2.7c1.2,0,2.2-2.9,3.3-8.7h1.1l-0.5-1.1c0.8-4.7,1.7-7.8,2.7-9.3c0-0.4-0.2-0.5-0.5-0.5
			c0.1-1,1-1.9,2.7-2.7c0-0.9,0.7-1.5,2.2-1.6c1.9,0,4.3,0.9,7.1,2.7c2.6-0.5,3.8-1.3,3.8-2.2l1.1,0.5l8.2-2.7v0.5L285.5,24.8z"/>
	</g>
	<g>
		<path id="XMLID_25_" class="st0" d="M307.3,31.1c-0.4,0.8-1.2,3.9-2.2,9.3h0.5c-0.3,1.5-0.7,2.2-1.1,2.2l0.5,1.1v1.6h-1.1l1.1,5.5
			c-0.4,1.1-0.7,1.6-1.1,1.6c0.4,0,0.5,2,0.5,6h0.5c0-0.9,0.7-2.4,2.2-4.4l-1.1-1.6c1.9,0,3.7-2.9,5.5-8.7c1-3.6,2.1-5.6,3.3-6
			c0.2-2.6,1.5-5.7,3.8-9.3l8.7-2.7l2.2,1.1c0-0.4,0.2-0.5,0.5-0.5c0,0.4,0.7,1.5,2.2,3.3c-0.4,0-0.5,0.2-0.5,0.5h0.5
			c-0.3,1.5-0.7,2.2-1.1,2.2l0.5,2.7v2.7l-0.5,6.6c0.4,0,0.5,0.2,0.5,0.5c-1,0-2.1,4.2-3.3,12.6h-0.5l0.5,1.1v1.6
			c0,0.4-0.2,0.5-0.5,0.5c0,0.4,0.2,0.5,0.5,0.5c-0.7,6.9-1.6,12.5-2.7,16.9h-0.5c0,0.4,0.2,0.5,0.5,0.5l-0.5,2.7v2.2
			c0,0.8,0.2,1.5,0.5,2.2l-1.1,2.2c0.9,0.7,1.6,1.1,2.2,1.1V90h-2.2v5.5h1.1V96c0,0.4-0.2,0.5-0.5,0.5c0.7,1.2,1.1,2.2,1.1,3.3
			c-0.5,0-2.2,0.5-4.9,1.6c-3.3-1.5-4.9-2.6-4.9-3.3c-2.1-2.2-3.6-5.3-4.4-9.3c0.4-2.9,0.7-4.4,1.1-4.4c0-0.4-0.2-0.5-0.5-0.5
			c0-0.7,0.4-2.1,1.1-4.4l-0.5-1.1c0.3-2.2,0.7-3.3,1.1-3.3c0-0.4-0.2-0.5-0.5-0.5c1.5-5.9,2.4-12.3,2.7-19.1h0.5l-0.5-1.1l1.1-1.6
			h-0.5l1.1-6h-0.5c-1.2,5.5-2.4,8.2-3.8,8.2l0.5,1.1c-2.9,7.2-4.9,11.4-6,12.6h0.5c-1.1,2.1-2.2,5-3.3,8.7c-1.3,0-2.6,0.7-3.8,2.2
			c-7.3-1.6-10.9-3.5-10.9-5.5c0.4,0,0.5-0.2,0.5-0.5c-0.7,0-1.1-0.4-1.1-1.1v-4.4c0-1.2,0.4-3.7,1.1-7.7l-0.5-1.1
			c0.7-1.4,1.4-5.6,2.2-12.6h-0.5c0.7-2.2,1.1-3.7,1.1-4.4l-0.5-1.1l0.5-1.1c0-0.4-0.2-0.5-0.5-0.5c0.7-3.5,1.3-7.7,1.6-12.6
			c3.8-1.1,6.6-1.6,8.2-1.6c2.9,0.5,4.4,2.2,4.4,4.9v0.8H307.3z"/>
	</g>
	<g>
		<path id="XMLID_24_" class="st0" d="M368.8,17.4h1.6c1.6,1.1,2.9,1.6,3.8,1.6v3.3l-2.7,3.3l-1.1-0.5l-8.7,2.7l1.1,1.6v0.5h-0.5
			l-2.3-1.6h-0.5v1.6l0.5,2.7h-1v1.1l0.5,1.1c-0.4,0-1.8,1.8-4.4,5.5c0,0.4,0.2,0.5,0.5,0.5c-1.5,9-2.8,14.9-3.8,17.5l0.5,1.1
			l-1.6,7.1l0.5,1.1l-0.5,3.3c0.4,0,0.5,0.2,0.5,0.5c-0.7,0-1.3,1.1-1.6,3.3v2.2c-0.7,0-1.1,0.9-1.1,2.7l0.5,1.1
			c0,0.4-0.2,0.5-0.5,0.5l0.5,2.7v0.5c-1,2.2-1.8,3.3-2.2,3.3h-2.7c-0.5-3.1-1.6-5.3-3.3-6.6c-1.8-4.2-3-6.7-3.8-7.7l0.5-2.7
			l-0.5-5.5c1.4,0,2.3-4.4,2.7-13.1c0.8-6.1,1.5-10.1,2.2-12c0-2.2,0.4-3.6,1.1-4.4v-1.1c0-0.7-0.4-1.1-1.1-1.1
			c-0.5,0-2.9,0.9-7.1,2.7h-1.6c0-0.8-1.1-1.3-3.3-1.6c0-1.1-0.5-1.6-1.6-1.6v-1.6c0.4-1.8,5.5-4.3,15.3-7.7
			c5.8-1.5,11.2-3.5,16.4-6c0,0.4,0.2,0.5,0.5,0.5c0.2-1.5,0.7-2.2,1.6-2.2v1.1h2.2c0.3-1.8,0.9-2.7,1.6-2.7
			c0.2,0.8,0.7,1.9,1.6,3.3L368.8,17.4z"/>
	</g>
	<g>
		<path id="XMLID_9_" class="st0" d="M444.4,7.3h1.9c2,1.3,3.6,1.9,4.6,1.9v3.9l-3.3,3.9l-1.3-0.7l-10.4,3.3l1.3,2v0.7h-0.7
			l-2.6-1.9h-0.7v1.9l0.7,3.3h-1.3v1.3l0.6,1.3c-0.4,0-2.1,2.2-5.2,6.6c0,0.4,0.2,0.6,0.7,0.6c-1.9,10.9-3.5,17.9-4.6,21l0.7,1.3
			l-1.9,8.5l0.6,1.3l-0.6,3.9c0.4,0,0.6,0.2,0.6,0.7c-0.9,0-1.5,1.3-1.9,3.9v2.6c-0.9,0-1.3,1.1-1.3,3.3l0.7,1.3
			c0,0.4-0.2,0.7-0.7,0.7l0.7,3.3v0.6c-1.2,2.6-2.1,3.9-2.6,3.9h-3.3c-0.7-3.7-2-6.3-3.9-7.8c-2.1-5-3.6-8.1-4.6-9.2l0.6-3.3
			l-0.6-6.6c1.6,0,2.7-5.2,3.3-15.7c1-7.5,1.8-12.3,2.6-14.4c0-2.6,0.4-4.4,1.3-5.3v-1.1c0-0.9-0.4-1.3-1.3-1.3
			c-0.7,0-3.5,1.1-8.6,3.3H402c0-1-1.3-1.6-3.9-1.9c0-1.3-0.7-2-1.9-2v-2.1c0.5-2.1,6.6-5.2,18.3-9.2c6.7-1.8,13.3-4.1,19.7-7.2
			c0,0.4,0.2,0.7,0.7,0.7c0.2-1.8,0.9-2.7,1.9-2.7v1.4h2.7c0.3-2.2,1-3.3,1.9-3.3c0.2,1,0.8,2.3,1.9,3.9L444.4,7.3z"/>
	</g>
	<g>
		<path id="XMLID_8_" class="st0" d="M463.1,28.9v3.3c-1.1,0-1.9,2.6-2.6,7.9c-0.8,0.8-2.8,8.6-5.9,23.6c-0.7,0-1.8,2.6-3.3,7.8
			h-0.7l0.7,1.3v0.7c-1.8,0-2.6,2.2-2.6,6.6c0.4,0.9,0.7,1.5,0.7,1.9c-0.4,0-2.2,1.1-5.3,3.3c-3.5-0.3-5.2-2.1-5.2-5.2
			c-1.1-1.3-1.9-2-2.6-2v-3.3c-0.9-1-1.3-1.9-1.3-2.6c1-5.4,1.8-9.1,2.6-11.1c-0.4-0.8-0.7-1.7-0.7-2.7c0.8-1,1.5-3.2,2-6.6
			c0.7-0.8,1.3-1.3,1.9-1.3v-0.7c0-0.9-0.4-1.3-1.3-1.3l6.6-24.2c0-1.9,3-3.6,9.2-5.3c3.5,2.1,6.3,5,8.5,8.6L463.1,28.9z"/>
	</g>
	<g>
		<path id="XMLID_7_" class="st0" d="M470.4,24c4.4,0,6.6,1.8,6.6,5.3h1.3c-0.4,5.4-1,9.4-1.9,11.8c0,0.8,0.7,3,1.9,6.6
			c-0.9,7-1.5,10.5-1.9,10.5c0.4,0.8,0.7,1.9,0.7,3.3c3-3.5,7.4-11.1,13.1-23c1.9-2,3.8-5,5.9-9.2c1.6-1.3,3.4-2,5.2-2
			c0.1-0.9,0.5-1.3,1.3-1.3c3.5,0,5.2,1.9,5.2,5.9c-0.6,0.9-1.3,3.7-1.9,8.5c-0.4,0-0.7,0.2-0.7,0.7h0.7c-0.4,1.2-0.8,4-1.3,8.6
			l1.3,0.6c-1.3,3.5-2,5.7-2,6.6l1.3,0.7c0-1.8,1.3-4.7,3.9-8.5l3.3-6.6c-0.4,0-0.7-0.2-0.7-0.7c1.5,0,3.7-3.9,6.6-11.8
			c5.6-2.1,8.5-3.7,8.5-4.6h3.3c1.8,0.7,2.7,2.2,2.7,4.6v11.8c0,0.4-0.2,0.7-0.7,0.7c0,0.4,0.2,0.7,0.7,0.7
			c-1.1,13.5-2.2,20.3-3.3,20.3c0,0.4,0.2,0.7,0.6,0.7c-0.5,8.5-1,13.1-1.3,13.8l0.7,1.3l-1.3,9.2l0.7,1.3c-0.4,1.9-0.7,3.4-0.7,4.6
			l0.7,1.3c-1.2,5.2-2.3,7.8-3.3,7.8h-0.7c-7-1.6-10.5-4.7-10.5-9.2v-1.9c0-1,0.2-1.9,0.7-2.7c0-0.4-0.2-0.6-0.7-0.6
			c0.4-3.9,0.9-6,1.3-6l-0.7-1.3c0.5-5.3,1.4-7.9,2.6-7.9c-0.4-1.3-0.9-1.9-1.3-1.9c0.8-2.1,1.3-4.1,1.3-5.9c-0.4,0-0.7-0.2-0.7-0.7
			l1.3-0.7l-0.7-1.3l0.7-1.3h-0.7l0.7-1.3v-1.3l-0.7-3.3c0.4,0,0.7-0.2,0.7-0.7h-0.7c1-3.1,1.7-4.6,2-4.6l-0.7-1.3
			c0.1-0.9,0.5-1.3,1.3-1.3c-0.4-0.8-0.6-1.6-0.6-2.6h-0.7c-2.6,7.4-3.9,11.4-3.9,11.8c-1,0.4-1.6,0.7-1.9,0.7v1.9
			c-1.2,4.7-2.7,8-4.6,9.8c0,0.4,0.2,0.7,0.7,0.7c-2.5,5.5-5.1,9.5-7.9,11.8h-2.6c-6.1-3.7-9.2-7.2-9.2-10.5l1.9-7.9
			c-0.4,0-0.7-0.2-0.7-0.7h0.7l-0.7-1.3c0.1-0.9,0.5-1.3,1.3-1.3c0-0.4-0.2-0.7-0.7-0.7l0.7-3.3v-1.3c-0.5,0-2.9,3.9-7.2,11.8
			c-1.4,5-2.7,8.3-3.9,9.8c-3.2,5.3-5.1,7.9-5.9,7.9h-4.6c-1.8-0.9-2.7-2-2.7-3.3c-0.4,0-0.6,0.2-0.6,0.7c-5.3,0-7.9-4.2-7.9-12.5
			c0.4-3.5,0.8-5.6,1.3-6.6l-0.7-1.3c0.9-2.2,1.3-3.7,1.3-4.6h-0.6c1.4-14.9,2.7-23.7,3.9-26.2h0.7l-0.7-1.3v-1.3
			c0-2.2,1.1-3.7,3.3-4.6L470.4,24L470.4,24z"/>
	</g>
	<g>
		<path id="XMLID_6_" class="st0" d="M576.7,16.1c3.1,0.4,5.1,0.9,5.9,1.3c0.8-0.4,1.6-0.6,2.6-0.6c3.3,0.5,5,1.5,5.3,2.6
			c-0.7,3-1.8,4.6-3.3,4.6c-1.8,0.2-2.6,0.9-2.6,2l-3.3-0.7c-5.5,2.7-12.7,5.3-21.7,7.9l-0.7,5.9l1.3,0.7c0.1-0.9,0.5-1.3,1.3-1.3
			c0.4,0,0.6,0.2,0.6,0.7l7.2-2c7,0.9,10.5,1.6,10.5,2c0.4,0.8,0.7,1.7,0.7,2.6v0.7c-0.9,0-2.7,1.1-5.3,3.3v0.5h-0.6
			c-0.4,0-0.7-0.2-0.7-0.7l-13.8,5.9c0,0.4-0.2,1-0.7,1.9l-1.3-0.6c-2.6,0-4.6,4.8-6,14.4h-0.6c0,0.4,0.2,0.7,0.6,0.7
			c-0.5,3.9-1,6.3-1.3,7.2c0.4,0,0.7,0.2,0.7,0.7c3.9,0,5.9-1.1,5.9-3.3c0.4,0,0.7,0.2,0.7,0.6c7-1.5,10.4-3.5,10.4-5.9h1.3
			c0,0.7,0.4,1.6,1.3,2.6v0.7c0,4.7-4.8,9.7-14.5,15.1c-1,1.3-3.2,2.6-6.6,3.9v0.7c-4.9-0.5-8.4-1.9-10.5-3.9h-0.7
			c0,0.4-0.2,0.7-0.6,0.7c-3.3-2.9-5.3-5.7-6-8.5c0.3-0.9,0.8-3.3,1.3-7.2h-0.7c1.8-3.2,2.6-8.1,2.6-14.5h1.3l-0.7-1.3v-1.3
			c0.1-2.2,0.5-3.3,1.3-3.3c-0.9-1.4-1.3-2.5-1.3-3.3c1.4,0,2.7-3.5,3.9-10.5h1.3l-0.7-1.3c1-5.6,2.1-9.4,3.3-11.2
			c0-0.4-0.2-0.7-0.7-0.7c0.1-1.2,1.2-2.2,3.3-3.3c0-1.2,0.9-1.8,2.6-1.9c2.3,0,5.2,1.1,8.6,3.3c3-0.7,4.6-1.6,4.6-2.6l1.3,0.7
			l9.8-3.3v0.6L576.7,16.1z"/>
	</g>
</g>
<g>
	<line id="XMLID_5_" class="st1" x1="244.9" y1="-39.2" x2="500.4" y2="-39.2"/>
</g>
<g>
	<rect id="XMLID_3_" x="239.1" y="-41.7" class="st0" width="267.1" height="5"/>
</g>
<g>
	<line id="XMLID_4_" class="st1" x1="244.9" y1="144.4" x2="500.4" y2="144.4"/>
</g>
<g>
	<rect id="XMLID_2_" x="247.2" y="141.9" class="st0" width="250.9" height="5"/>
</g>
</svg>
