<?xml version="1.0" encoding="utf-8"?>
<!-- Generator: Adobe Illustrator 19.0.0, SVG Export Plug-In . SVG Version: 6.00 Build 0)  -->
<svg version="1.1" id="Layer_1" xmlns="http://www.w3.org/2000/svg" xmlns:xlink="http://www.w3.org/1999/xlink" x="0px" y="0px"
	 viewBox="0 0 443.5 232.7" style="enable-background:new 0 0 443.5 232.7;" xml:space="preserve">
<style type="text/css">
	.st0{fill:#05050F;}
</style>
<g>
	<polygon id="XMLID_43_" class="st0" points="108.2,23 102.8,23 102.8,43.8 97.6,43.8 97.6,23 92.1,23 92.1,17.9 108.2,17.9 	"/>
</g>
<g>
	<polygon id="XMLID_42_" class="st0" points="131.3,32.5 131.3,43.8 126.2,43.8 126.2,32.5 120.4,32.5 120.4,43.8 115.2,43.8 
		115.2,32.5 115.2,27.4 115.2,17.9 120.4,17.9 120.4,27.4 126.2,27.4 126.2,17.9 131.3,17.9 131.3,27.4 	"/>
</g>
<g>
	<polygon id="XMLID_41_" class="st0" points="144.1,23 144.1,28.3 152.9,28.3 152.9,33.5 144.1,33.5 144.1,38.7 155,38.7 155,43.8 
		144.1,43.8 138.9,43.8 138.9,38.7 138.9,33.5 138.9,28.3 138.9,23 138.9,17.9 144.1,17.9 155,17.9 155,23 	"/>
</g>
<g>
	<path class="st0" d="M194.4,43.8l-1.8-4.8h-7.5l-1.8,4.8h-5.5l9.8-25.9h2.5l9.8,25.9H194.4z M186.9,34.4h4l-1.9-5.2h0L186.9,34.4z"
		/>
</g>
<g>
	<polygon id="XMLID_38_" class="st0" points="222.3,43.8 211.3,43.8 206.1,43.8 206.1,38.7 206.1,17.9 211.3,17.9 211.3,38.7 
		222.3,38.7 	"/>
</g>
<g>
	<polygon id="XMLID_37_" class="st0" points="244.9,43.8 233.9,43.8 228.8,43.8 228.8,38.7 228.8,17.9 233.9,17.9 233.9,38.7 
		244.9,38.7 	"/>
</g>
<g>
	<rect id="XMLID_36_" x="250.6" y="17.9" class="st0" width="5.2" height="25.9"/>
</g>
<g>
	<path class="st0" d="M278.2,43.8l-1.8-4.8h-7.5l-1.8,4.8h-5.5l9.8-25.9h2.5l9.8,25.9H278.2z M270.7,34.4h4l-1.9-5.2h0L270.7,34.4z"
		/>
</g>
<g>
	<polygon id="XMLID_33_" class="st0" points="309.2,43.8 304.1,43.8 304.1,43.9 293.2,27.3 293.2,43.8 288,43.8 288,17.9 
		293.2,17.9 293.2,17.9 293.2,17.9 304.1,34.4 304.1,17.9 309.2,17.9 	"/>
</g>
<g>
	<path id="XMLID_32_" class="st0" d="M327.2,38.6c0.8,0,1.7-0.1,2.4-0.4c0.8-0.3,1.5-0.6,2.1-1.1l4.9,2.5c-1.2,1.3-2.6,2.4-4.2,3.1
		c-1.6,0.8-3.4,1.1-5.3,1.1c-1.8,0-3.4-0.3-5-1c-1.5-0.7-2.9-1.6-4.1-2.8c-1.2-1.2-2.1-2.5-2.8-4.1c-0.7-1.6-1-3.2-1-5
		c0-1.8,0.3-3.5,1-5.1c0.7-1.6,1.6-3,2.8-4.1c1.2-1.2,2.5-2.1,4.1-2.8c1.5-0.7,3.2-1,5-1c1.9,0,3.7,0.4,5.3,1.1
		c1.6,0.8,3,1.8,4.2,3.1l-4.9,2.5c-0.6-0.5-1.4-0.8-2.1-1.1c-0.8-0.3-1.6-0.4-2.4-0.4c-1.1,0-2,0.2-3,0.6c-0.9,0.4-1.7,1-2.4,1.6
		c-0.7,0.7-1.2,1.5-1.6,2.4c-0.4,0.9-0.6,1.9-0.6,3v0V31c0,1.1,0.2,2,0.6,3c0.4,0.9,0.9,1.7,1.6,2.4c0.7,0.7,1.5,1.2,2.4,1.6
		C325.1,38.4,326.1,38.6,327.2,38.6"/>
</g>
<g>
	<polygon id="XMLID_31_" class="st0" points="348.2,23 348.2,28.3 357.1,28.3 357.1,33.5 348.2,33.5 348.2,38.7 359.2,38.7 
		359.2,43.8 348.2,43.8 343.1,43.8 343.1,38.7 343.1,33.5 343.1,28.3 343.1,23 343.1,17.9 348.2,17.9 359.2,17.9 359.2,23 	"/>
</g>
<g>
	<path id="XMLID_23_" class="st0" d="M113,168.5c0.8,0,1.7-0.1,2.4-0.4c0.8-0.3,1.5-0.6,2.1-1.1l4.9,2.5c-1.2,1.3-2.6,2.4-4.2,3.1
		c-1.6,0.8-3.4,1.1-5.3,1.1c-1.8,0-3.4-0.3-5-1c-1.5-0.7-2.9-1.6-4.1-2.8c-1.2-1.2-2.1-2.5-2.8-4.1c-0.7-1.6-1-3.2-1-5
		c0-1.8,0.3-3.5,1-5.1c0.7-1.6,1.6-3,2.8-4.1c1.2-1.2,2.5-2.1,4.1-2.8c1.5-0.7,3.2-1,5-1c1.9,0,3.7,0.4,5.3,1.1
		c1.6,0.8,3,1.8,4.2,3.1l-4.9,2.5c-0.6-0.5-1.4-0.8-2.1-1.1c-0.8-0.3-1.6-0.4-2.4-0.4c-1.1,0-2,0.2-3,0.6c-0.9,0.4-1.7,1-2.4,1.6
		c-0.7,0.7-1.2,1.5-1.6,2.4c-0.4,0.9-0.6,1.9-0.6,3v0v0.1c0,1.1,0.2,2,0.6,3c0.4,0.9,0.9,1.7,1.6,2.4c0.7,0.7,1.5,1.2,2.4,1.6
		C111,168.3,111.9,168.5,113,168.5"/>
</g>
<g>
	<path class="st0" d="M139.7,147.8c1.8,0,3.5,0.3,5.1,1c1.6,0.7,3,1.6,4.1,2.8c1.2,1.2,2.1,2.5,2.8,4.1c0.7,1.6,1,3.3,1,5.1
		c0,1.8-0.3,3.5-1,5c-0.7,1.6-1.6,2.9-2.8,4.1c-1.2,1.2-2.6,2.1-4.1,2.8c-1.6,0.7-3.3,1-5.1,1c-1.8,0-3.5-0.3-5.1-1
		c-1.6-0.7-3-1.6-4.1-2.8c-1.2-1.2-2.1-2.5-2.8-4.1c-0.7-1.6-1-3.2-1-5c0-1.8,0.3-3.5,1-5.1c0.7-1.6,1.6-3,2.8-4.1
		c1.2-1.2,2.6-2.1,4.1-2.8C136.2,148.2,137.9,147.8,139.7,147.8 M139.7,168.5c1.1,0,2.1-0.2,3-0.6c1-0.4,1.8-1,2.5-1.7
		c0.7-0.7,1.3-1.5,1.7-2.4c0.4-0.9,0.6-1.9,0.6-3c0-1.1-0.2-2.1-0.6-3c-0.4-0.9-1-1.8-1.7-2.5c-0.7-0.7-1.5-1.3-2.5-1.7
		c-1-0.4-2-0.6-3-0.6c-1.1,0-2.1,0.2-3,0.6c-1,0.4-1.8,1-2.5,1.7c-0.7,0.7-1.3,1.5-1.7,2.5c-0.4,0.9-0.6,1.9-0.6,3
		c0,1.1,0.2,2.1,0.6,3c0.4,0.9,1,1.7,1.7,2.4c0.7,0.7,1.5,1.3,2.5,1.7C137.6,168.3,138.6,168.5,139.7,168.5"/>
</g>
<g>
	<polygon id="XMLID_20_" class="st0" points="180.4,147.8 180.4,173.7 175.3,173.7 175.3,156.3 168.9,164.7 162.7,156.4 
		162.7,173.7 157.5,173.7 157.5,147.8 162.7,147.8 168.9,156.1 175.2,147.8 175.3,147.8 175.3,147.8 	"/>
</g>
<g>
	<path class="st0" d="M194.3,147.8c1.1,0,2.1,0.2,3,0.6c0.9,0.4,1.8,1,2.5,1.7c0.7,0.7,1.3,1.5,1.7,2.5c0.4,0.9,0.6,1.9,0.6,3
		s-0.2,2.1-0.6,3c-0.4,1-1,1.8-1.7,2.5c-0.7,0.7-1.5,1.3-2.5,1.7c-0.9,0.4-1.9,0.6-3,0.6h-3.4v10.3h-5.2v-25.9h2.6H194.3z
		 M193.6,158.3c0.7,0,1.4-0.3,1.9-0.8s0.8-1.2,0.8-1.9c0-0.8-0.3-1.4-0.8-1.9c-0.5-0.5-1.2-0.8-1.9-0.8h-2.8v5.4H193.6z"/>
</g>
<g>
	<polygon id="XMLID_17_" class="st0" points="212.3,153 212.3,158.2 221.1,158.2 221.1,163.4 212.3,163.4 212.3,168.6 223.2,168.6 
		223.2,173.7 212.3,173.7 207.1,173.7 207.1,168.6 207.1,163.4 207.1,158.2 207.1,153 207.1,147.8 212.3,147.8 223.2,147.8 
		223.2,153 	"/>
</g>
<g>
	<polygon id="XMLID_16_" class="st0" points="246.4,153 240.9,153 240.9,173.7 235.7,173.7 235.7,153 230.2,153 230.2,147.8 
		246.4,147.8 	"/>
</g>
<g>
	<rect id="XMLID_15_" x="253.2" y="147.8" class="st0" width="5.2" height="25.9"/>
</g>
<g>
	<polygon id="XMLID_14_" class="st0" points="281.3,153 275.8,153 275.8,173.7 270.6,173.7 270.6,153 265.1,153 265.1,147.8 
		281.3,147.8 	"/>
</g>
<g>
	<rect id="XMLID_13_" x="288.1" y="147.8" class="st0" width="5.2" height="25.9"/>
</g>
<g>
	<path class="st0" d="M312.1,147.8c1.8,0,3.5,0.3,5.1,1c1.6,0.7,3,1.6,4.1,2.8c1.2,1.2,2.1,2.5,2.8,4.1c0.7,1.6,1,3.3,1,5.1
		c0,1.8-0.3,3.5-1,5c-0.7,1.6-1.6,2.9-2.8,4.1c-1.2,1.2-2.6,2.1-4.1,2.8c-1.6,0.7-3.3,1-5.1,1c-1.8,0-3.5-0.3-5.1-1
		c-1.6-0.7-3-1.6-4.1-2.8c-1.2-1.2-2.1-2.5-2.8-4.1c-0.7-1.6-1-3.2-1-5c0-1.8,0.3-3.5,1-5.1c0.7-1.6,1.6-3,2.8-4.1
		c1.2-1.2,2.6-2.1,4.1-2.8C308.6,148.2,310.3,147.8,312.1,147.8 M312.1,168.5c1.1,0,2.1-0.2,3-0.6c1-0.4,1.8-1,2.5-1.7
		c0.7-0.7,1.3-1.5,1.7-2.4c0.4-0.9,0.6-1.9,0.6-3c0-1.1-0.2-2.1-0.6-3c-0.4-0.9-1-1.8-1.7-2.5c-0.7-0.7-1.5-1.3-2.5-1.7
		c-1-0.4-2-0.6-3-0.6c-1.1,0-2.1,0.2-3,0.6c-1,0.4-1.8,1-2.5,1.7c-0.7,0.7-1.3,1.5-1.7,2.5c-0.4,0.9-0.6,1.9-0.6,3
		c0,1.1,0.2,2.1,0.6,3c0.4,0.9,1,1.7,1.7,2.4c0.7,0.7,1.5,1.3,2.5,1.7C310,168.3,311,168.5,312.1,168.5"/>
</g>
<g>
	<polygon id="XMLID_10_" class="st0" points="351.1,173.7 345.9,173.7 345.9,173.8 335.1,157.2 335.1,173.7 329.9,173.7 
		329.9,147.8 335.1,147.8 335.1,147.8 335.1,147.8 345.9,164.3 345.9,147.8 351.1,147.8 	"/>
</g>
<g id="XMLID_1_">
	<g>
		<path id="XMLID_30_" class="st0" d="M48.5,50.7h1.9c2,1.3,3.6,1.9,4.6,1.9v3.9l-3.3,3.9l-1.3-0.7L40,63.2l1.3,2v0.6h-0.7L38,63.8
			h-0.7v1.9l0.7,3.3h-1.3v1.3l0.6,1.3c-0.4,0-2.1,2.2-5.2,6.6c0,0.4,0.2,0.6,0.7,0.6c-1.9,10.9-3.5,17.9-4.6,21l0.7,1.3l-1.9,8.5
			l0.6,1.3l-0.6,3.9c0.4,0,0.6,0.2,0.6,0.7c-0.9,0-1.5,1.3-1.9,3.9v2.6c-0.9,0-1.3,1.1-1.3,3.3l0.7,1.3c0,0.4-0.2,0.7-0.7,0.7
			l0.7,3.3v0.6c-1.2,2.6-2.1,3.9-2.6,3.9H19c-0.7-3.7-2-6.3-3.9-7.8c-2.1-5-3.6-8.1-4.6-9.2l0.6-3.3l-0.6-6.6
			c1.6,0,2.7-5.2,3.3-15.7c1-7.5,1.8-12.3,2.6-14.4c0-2.6,0.4-4.4,1.3-5.3v-1.3c0-0.9-0.4-1.3-1.3-1.3c-0.7,0-3.5,1.1-8.6,3.3H5.9
			c0-1-1.3-1.6-3.9-1.9c0-1.3-0.7-2-1.9-2v-1.9c0.5-2.1,6.6-5.2,18.3-9.2c6.7-1.8,13.3-4.1,19.7-7.2c0,0.4,0.2,0.7,0.7,0.7
			c0.2-1.8,0.9-2.7,1.9-2.7v1.3h2.7c0.3-2.2,1-3.3,1.9-3.3c0.2,1,0.8,2.3,1.9,3.9L48.5,50.7z"/>
	</g>
	<g>
		<path class="st0" d="M59.9,58.3h6c0,0.5,1.1,1.5,3.3,2.7v0.5c-0.4,0.7-0.5,1.3-0.5,1.6h0.5l-0.5,1.1v1.1c0,0.4,0.2,0.5,0.5,0.5
			c0,0.4-0.2,0.5-0.5,0.5c0.4,3.5,1.1,5.9,2.2,7.1v4.9c2.1,12.4,3.8,18.6,4.9,18.6H78v1.6c0,1.5-1.3,3.5-3.8,6c0,3.2,0.5,7.2,1.6,12
			h-0.5l0.5,1.1c0,1.2-0.2,2.1-0.5,2.7l0.5,2.7c0,1.8-0.9,3.5-2.7,4.9c-1.6,0-4.2-1.6-7.7-4.9c-2.9,0-4.4-3.1-4.4-9.3
			c0-2.5-0.4-4.3-1.1-5.5c-6.2,3.3-10.4,4.9-12.6,4.9c-1.4,5.8-3.2,8.7-5.5,8.7c-2.9-4.4-5.2-6.6-7.1-6.6c0-1-0.4-2.1-1.1-3.3
			c0-1.8,1.3-4.1,3.8-7.1c1.4-6,3.6-10.7,6.6-14.2v-0.5l-0.5-1.1c3.5-2.7,6-7,7.7-13.1h1.1v-2.2c1.5-3.6,2.6-8,3.3-13.1L59.9,58.3z
			 M56.1,91.1c-0.7,1.3-1.6,4.3-2.7,8.7v1.6c4-0.9,6-1.8,6-2.7c0-0.4,0.2-0.5,0.5-0.5c0-0.4-0.2-0.5-0.5-0.5l0.5-2.2
			c0-0.5-0.4-2.2-1.1-4.9h0.5c-0.4-3.3-1-4.9-1.6-4.9c0,1.3-0.7,3.2-2.2,5.5H56.1z"/>
	</g>
	<g>
		<path id="XMLID_27_" class="st0" d="M97.4,61.6v0.5l-0.5,1.1l1.1,0.5h0.5l-0.5-1.1l1.1-0.5c0,0.4,0.9,1.3,2.7,2.7l0.5,3.3
			l-1.1-0.5h-0.5l0.5,1.1c-1.8,2.1-2.7,3.7-2.7,4.9l-1.1-0.5h-0.5c0.4,0.4,0.5,1.3,0.5,2.7h-0.5l0.5,1.1v0.5c0,0.8-0.2,1.5-0.5,2.2
			l0.5,1.1c-0.7,2.2-1.1,3.7-1.1,4.4l0.5,2.7L95.7,90h0.5l-0.5,1.1l0.5,1.1c-0.9,0-1.8,2.6-2.7,7.7H93c0.4,0.7,0.5,1.3,0.5,1.6
			c-1.5,4.3-2.7,8.6-3.8,13.1l1.6,1.1c0.8,0,2.4-1.1,4.9-3.3c3.3-1.8,5.5-2.7,6.6-2.7l0.5,1.1v1.6c0,1-1.1,3-3.3,6
			c-4.1,5.2-9,8.4-14.8,9.8c-2.2,0-3.3-0.2-3.3-0.5v-1.6c-2.5,0-5-2.6-7.7-7.7v-1.1c0-0.4,0.2-0.5,0.5-0.5c0-0.4-0.2-0.5-0.5-0.5
			c0.7-4.3,1.6-6.5,2.7-6.6l-0.5-1.1v-1.1l1.1-1.6h-1.1c1.6-6.2,2.7-9.3,3.3-9.3l-0.5-1.1c1.5-8.5,3.1-15.1,4.9-19.7
			c0-0.4-0.2-0.5-0.5-0.5l0.5-2.7v-1.1c0-0.9-0.2-1.6-0.5-2.2c0.4-0.7,0.5-1.3,0.5-1.6V66c2.9-0.9,4.4-1.9,4.4-3.3H93
			c0.7,0,1.1-0.4,1.1-1.1c0.7,0.4,1.3,0.5,1.6,0.5C96.4,61.8,97,61.6,97.4,61.6"/>
	</g>
	<g>
		<path id="XMLID_26_" class="st0" d="M138.5,66.5c2.6,0.4,4.3,0.7,4.9,1.1c0.7-0.4,1.4-0.5,2.2-0.5c2.7,0.4,4.2,1.2,4.4,2.2
			c-0.5,2.6-1.5,3.8-2.7,3.8c-1.5,0.2-2.2,0.7-2.2,1.6l-2.7-0.5c-4.4,2.2-10.4,4.4-18,6.6l-0.5,4.9l1.1,0.5c0.1-0.7,0.4-1.1,1.1-1.1
			c0.4,0,0.5,0.2,0.5,0.5l6-1.6c5.8,0.7,8.7,1.3,8.7,1.6c0.4,0.6,0.5,1.3,0.5,2.2v0.5c-0.7,0-2.2,0.9-4.4,2.7v0.5h-0.5
			c-0.4,0-0.5-0.2-0.5-0.5L124.8,96c0,0.4-0.2,0.9-0.5,1.6l-1.1-0.5c-2.2,0-3.8,4-4.9,12h-0.5c0,0.4,0.2,0.5,0.5,0.5
			c-0.4,3.3-0.8,5.3-1.1,6c0.4,0,0.5,0.2,0.5,0.5c3.3,0,4.9-0.9,4.9-2.7c0.4,0,0.5,0.2,0.5,0.5c5.8-1.3,8.7-2.9,8.7-4.9h1.1
			c0,0.5,0.4,1.3,1.1,2.2v0.5c0,3.9-4,8.1-12,12.6c-0.8,1.1-2.6,2.2-5.5,3.3v0.5c-4-0.5-6.9-1.6-8.7-3.3h-0.5c0,0.4-0.2,0.5-0.5,0.5
			c-2.7-2.4-4.4-4.7-4.9-7.1c0.3-0.7,0.7-2.7,1.1-6h-0.5c1.5-2.7,2.2-6.7,2.2-12h1.1l-0.5-1.1v-1.1c0.1-1.8,0.4-2.7,1.1-2.7
			c-0.7-1.2-1.1-2.1-1.1-2.7c1.2,0,2.2-2.9,3.3-8.7h1.1l-0.5-1.1c0.8-4.7,1.7-7.8,2.7-9.3c0-0.4-0.2-0.5-0.5-0.5
			c0.1-1,1-1.9,2.7-2.7c0-0.9,0.7-1.5,2.2-1.6c1.9,0,4.3,0.9,7.1,2.7c2.6-0.5,3.8-1.3,3.8-2.2l1.1,0.5l8.2-2.7v0.5L138.5,66.5z"/>
	</g>
	<g>
		<path id="XMLID_25_" class="st0" d="M160.3,72.8c-0.4,0.8-1.2,3.9-2.2,9.3h0.5c-0.3,1.5-0.7,2.2-1.1,2.2l0.5,1.1V87h-1.1l1.1,5.5
			c-0.4,1.1-0.7,1.6-1.1,1.6c0.4,0,0.5,2,0.5,6h0.5c0-0.9,0.7-2.4,2.2-4.4l-1.1-1.6c1.9,0,3.7-2.9,5.5-8.7c1-3.6,2.1-5.6,3.3-6
			c0.2-2.6,1.5-5.7,3.8-9.3l8.7-2.7l2.2,1.1c0-0.4,0.2-0.5,0.5-0.5c0,0.4,0.7,1.5,2.2,3.3c-0.4,0-0.5,0.2-0.5,0.5h0.5
			c-0.3,1.5-0.7,2.2-1.1,2.2l0.5,2.7v2.7l-0.5,6.6c0.4,0,0.5,0.2,0.5,0.5c-1,0-2.1,4.2-3.3,12.6h-0.5l0.5,1.1v1.6
			c0,0.4-0.2,0.5-0.5,0.5c0,0.4,0.2,0.5,0.5,0.5c-0.7,6.9-1.6,12.5-2.7,16.9h-0.5c0,0.4,0.2,0.5,0.5,0.5l-0.5,2.7v2.2
			c0,0.8,0.2,1.5,0.5,2.2l-1.1,2.2c0.9,0.7,1.6,1.1,2.2,1.1v1.1h-2.2v5.5h1.1v0.5c0,0.4-0.2,0.5-0.5,0.5c0.7,1.2,1.1,2.2,1.1,3.3
			c-0.5,0-2.2,0.5-4.9,1.6c-3.3-1.5-4.9-2.6-4.9-3.3c-2.1-2.2-3.6-5.3-4.4-9.3c0.4-2.9,0.7-4.4,1.1-4.4c0-0.4-0.2-0.5-0.5-0.5
			c0-0.7,0.4-2.1,1.1-4.4l-0.5-1.1c0.3-2.2,0.7-3.3,1.1-3.3c0-0.4-0.2-0.5-0.5-0.5c1.5-5.9,2.4-12.3,2.7-19.1h0.5l-0.5-1.1l1.1-1.6
			h-0.5l1.1-6h-0.5c-1.2,5.5-2.4,8.2-3.8,8.2l0.5,1.1c-2.9,7.2-4.9,11.4-6,12.6h0.5c-1.1,2.1-2.2,5-3.3,8.7c-1.3,0-2.6,0.7-3.8,2.2
			c-7.3-1.6-10.9-3.5-10.9-5.5c0.4,0,0.5-0.2,0.5-0.5c-0.7,0-1.1-0.4-1.1-1.1v-4.4c0-1.2,0.4-3.7,1.1-7.7l-0.5-1.1
			c0.7-1.4,1.4-5.6,2.2-12.6h-0.5c0.7-2.2,1.1-3.7,1.1-4.4l-0.5-1.1l0.5-1.1c0-0.4-0.2-0.5-0.5-0.5c0.7-3.5,1.3-7.7,1.6-12.6
			c3.8-1.1,6.6-1.6,8.2-1.6c2.9,0.5,4.4,2.2,4.4,4.9V72.8z"/>
	</g>
	<g>
		<path id="XMLID_24_" class="st0" d="M221.8,59.1h1.6c1.6,1.1,2.9,1.6,3.8,1.6V64l-2.7,3.3l-1.1-0.5l-8.7,2.7l1.1,1.6v0.5h-0.5
			L213,70h-0.5v1.6l0.5,2.7H212v1.1l0.5,1.1c-0.4,0-1.8,1.8-4.4,5.5c0,0.4,0.2,0.5,0.5,0.5c-1.5,9-2.8,14.9-3.8,17.5l0.5,1.1
			l-1.6,7.1l0.5,1.1l-0.5,3.3c0.4,0,0.5,0.2,0.5,0.5c-0.7,0-1.3,1.1-1.6,3.3v2.2c-0.7,0-1.1,0.9-1.1,2.7l0.5,1.1
			c0,0.4-0.2,0.5-0.5,0.5l0.5,2.7v0.5c-1,2.2-1.8,3.3-2.2,3.3h-2.7c-0.5-3.1-1.6-5.3-3.3-6.6c-1.8-4.2-3-6.7-3.8-7.7l0.5-2.7
			l-0.5-5.5c1.4,0,2.3-4.4,2.7-13.1c0.8-6.1,1.5-10.1,2.2-12c0-2.2,0.4-3.6,1.1-4.4v-1.1c0-0.7-0.4-1.1-1.1-1.1
			c-0.5,0-2.9,0.9-7.1,2.7h-1.6c0-0.8-1.1-1.3-3.3-1.6c0-1.1-0.5-1.6-1.6-1.6v-1.6c0.4-1.8,5.5-4.3,15.3-7.7
			c5.8-1.5,11.2-3.5,16.4-6c0,0.4,0.2,0.5,0.5,0.5c0.2-1.5,0.7-2.2,1.6-2.2v1.1h2.2c0.3-1.8,0.9-2.7,1.6-2.7
			c0.2,0.8,0.7,1.9,1.6,3.3L221.8,59.1z"/>
	</g>
	<g>
		<path id="XMLID_9_" class="st0" d="M297.4,49h1.9c2,1.3,3.6,1.9,4.6,1.9v3.9l-3.3,3.9l-1.3-0.7l-10.4,3.3l1.3,2V64h-0.7l-2.6-1.9
			h-0.7V64l0.7,3.3h-1.3v1.3l0.6,1.3c-0.4,0-2.1,2.2-5.2,6.6c0,0.4,0.2,0.6,0.7,0.6c-1.9,10.9-3.5,17.9-4.6,21l0.7,1.3l-1.9,8.5
			l0.6,1.3l-0.6,3.9c0.4,0,0.6,0.2,0.6,0.7c-0.9,0-1.5,1.3-1.9,3.9v2.6c-0.9,0-1.3,1.1-1.3,3.3l0.7,1.3c0,0.4-0.2,0.7-0.7,0.7
			l0.7,3.3v0.6c-1.2,2.6-2.1,3.9-2.6,3.9h-3.3c-0.7-3.7-2-6.3-3.9-7.8c-2.1-5-3.6-8.1-4.6-9.2l0.6-3.3l-0.6-6.6
			c1.6,0,2.7-5.2,3.3-15.7c1-7.5,1.8-12.3,2.6-14.4c0-2.6,0.4-4.4,1.3-5.3V70c0-0.9-0.4-1.3-1.3-1.3c-0.7,0-3.5,1.1-8.6,3.3h-1.9
			c0-1-1.3-1.6-3.9-1.9c0-1.3-0.7-2-1.9-2V66c0.5-2.1,6.6-5.2,18.3-9.2c6.7-1.8,13.3-4.1,19.7-7.2c0,0.4,0.2,0.7,0.7,0.7
			c0.2-1.8,0.9-2.7,1.9-2.7V49h2.7c0.3-2.2,1-3.3,1.9-3.3c0.2,1,0.8,2.3,1.9,3.9L297.4,49z"/>
	</g>
	<g>
		<path id="XMLID_8_" class="st0" d="M316.1,70.6v3.3c-1.1,0-1.9,2.6-2.6,7.9c-0.8,0.8-2.8,8.6-5.9,23.6c-0.7,0-1.8,2.6-3.3,7.8
			h-0.7l0.7,1.3v0.7c-1.8,0-2.6,2.2-2.6,6.6c0.4,0.9,0.7,1.5,0.7,1.9c-0.4,0-2.2,1.1-5.3,3.3c-3.5-0.3-5.2-2.1-5.2-5.2
			c-1.1-1.3-1.9-2-2.6-2v-3.3c-0.9-1-1.3-1.9-1.3-2.6c1-5.4,1.8-9.1,2.6-11.1c-0.4-0.8-0.7-1.7-0.7-2.7c0.8-1,1.5-3.2,2-6.6
			c0.7-0.8,1.3-1.3,1.9-1.3v-0.7c0-0.9-0.4-1.3-1.3-1.3l6.6-24.2c0-1.9,3-3.6,9.2-5.3c3.5,2.1,6.3,5,8.5,8.6L316.1,70.6z"/>
	</g>
	<g>
		<path id="XMLID_7_" class="st0" d="M323.4,65.7c4.4,0,6.6,1.8,6.6,5.3h1.3c-0.4,5.4-1,9.4-1.9,11.8c0,0.8,0.7,3,1.9,6.6
			c-0.9,7-1.5,10.5-1.9,10.5c0.4,0.8,0.7,1.9,0.7,3.3c3-3.5,7.4-11.1,13.1-23c1.9-2,3.8-5,5.9-9.2c1.6-1.3,3.4-2,5.2-2
			c0.1-0.9,0.5-1.3,1.3-1.3c3.5,0,5.2,1.9,5.2,5.9c-0.6,0.9-1.3,3.7-1.9,8.5c-0.4,0-0.7,0.2-0.7,0.7h0.7c-0.4,1.2-0.8,4-1.3,8.6
			l1.3,0.6c-1.3,3.5-2,5.7-2,6.6l1.3,0.7c0-1.8,1.3-4.7,3.9-8.5l3.3-6.6c-0.4,0-0.7-0.2-0.7-0.7c1.5,0,3.7-3.9,6.6-11.8
			c5.6-2.1,8.5-3.7,8.5-4.6h3.3c1.8,0.7,2.7,2.2,2.7,4.6v11.8c0,0.4-0.2,0.7-0.7,0.7c0,0.4,0.2,0.7,0.7,0.7
			c-1.1,13.5-2.2,20.3-3.3,20.3c0,0.4,0.2,0.7,0.6,0.7c-0.5,8.5-1,13.1-1.3,13.8l0.7,1.3l-1.3,9.2l0.7,1.3c-0.4,1.9-0.7,3.4-0.7,4.6
			l0.7,1.3c-1.2,5.2-2.3,7.8-3.3,7.8h-0.7c-7-1.6-10.5-4.7-10.5-9.2v-1.9c0-1,0.2-1.9,0.7-2.7c0-0.4-0.2-0.6-0.7-0.6
			c0.4-3.9,0.9-6,1.3-6l-0.7-1.3c0.5-5.3,1.4-7.9,2.6-7.9c-0.4-1.3-0.9-1.9-1.3-1.9c0.8-2.1,1.3-4.1,1.3-5.9c-0.4,0-0.7-0.2-0.7-0.7
			l1.3-0.7l-0.7-1.3l0.7-1.3h-0.7l0.7-1.3v-1.3l-0.7-3.3c0.4,0,0.7-0.2,0.7-0.7h-0.7c1-3.1,1.7-4.6,2-4.6l-0.7-1.3
			c0.1-0.9,0.5-1.3,1.3-1.3c-0.4-0.8-0.6-1.6-0.6-2.6h-0.7c-2.6,7.4-3.9,11.4-3.9,11.8c-1,0.4-1.6,0.7-1.9,0.7v1.9
			c-1.2,4.7-2.7,8-4.6,9.8c0,0.4,0.2,0.7,0.7,0.7c-2.5,5.5-5.1,9.5-7.9,11.8h-2.6c-6.1-3.7-9.2-7.2-9.2-10.5l1.9-7.9
			c-0.4,0-0.7-0.2-0.7-0.7h0.7l-0.7-1.3c0.1-0.9,0.5-1.3,1.3-1.3c0-0.4-0.2-0.7-0.7-0.7l0.7-3.3v-1.3c-0.5,0-2.9,3.9-7.2,11.8
			c-1.4,5-2.7,8.3-3.9,9.8c-3.2,5.3-5.1,7.9-5.9,7.9h-4.6c-1.8-0.9-2.7-2-2.7-3.3c-0.4,0-0.6,0.2-0.6,0.7c-5.3,0-7.9-4.2-7.9-12.5
			c0.4-3.5,0.8-5.6,1.3-6.6l-0.7-1.3c0.9-2.2,1.3-3.7,1.3-4.6h-0.6c1.4-14.9,2.7-23.7,3.9-26.2h0.7l-0.7-1.3v-1.3
			c0-2.2,1.1-3.7,3.3-4.6H323.4z"/>
	</g>
	<g>
		<path id="XMLID_6_" class="st0" d="M429.7,57.8c3.1,0.4,5.1,0.9,5.9,1.3c0.8-0.4,1.6-0.6,2.6-0.6c3.3,0.5,5,1.5,5.3,2.6
			c-0.7,3-1.8,4.6-3.3,4.6c-1.8,0.2-2.6,0.9-2.6,2l-3.3-0.7c-5.5,2.7-12.7,5.3-21.7,7.9l-0.7,5.9l1.3,0.7c0.1-0.9,0.5-1.3,1.3-1.3
			c0.4,0,0.6,0.2,0.6,0.7l7.2-2c7,0.9,10.5,1.6,10.5,2c0.4,0.8,0.7,1.7,0.7,2.6v0.7c-0.9,0-2.7,1.1-5.3,3.3V88h-0.6
			c-0.4,0-0.7-0.2-0.7-0.7l-13.8,5.9c0,0.4-0.2,1-0.7,1.9l-1.3-0.6c-2.6,0-4.6,4.8-6,14.4h-0.6c0,0.4,0.2,0.7,0.6,0.7
			c-0.5,3.9-1,6.3-1.3,7.2c0.4,0,0.7,0.2,0.7,0.7c3.9,0,5.9-1.1,5.9-3.3c0.4,0,0.7,0.2,0.7,0.6c7-1.5,10.4-3.5,10.4-5.9h1.3
			c0,0.7,0.4,1.6,1.3,2.6v0.7c0,4.7-4.8,9.7-14.5,15.1c-1,1.3-3.2,2.6-6.6,3.9v0.7c-4.9-0.5-8.4-1.9-10.5-3.9h-0.7
			c0,0.4-0.2,0.7-0.6,0.7c-3.3-2.9-5.3-5.7-6-8.5c0.3-0.9,0.8-3.3,1.3-7.2h-0.7c1.8-3.2,2.6-8.1,2.6-14.5h1.3l-0.7-1.3v-1.3
			c0.1-2.2,0.5-3.3,1.3-3.3c-0.9-1.4-1.3-2.5-1.3-3.3c1.4,0,2.7-3.5,3.9-10.5h1.3l-0.7-1.3c1-5.6,2.1-9.4,3.3-11.2
			c0-0.4-0.2-0.7-0.7-0.7c0.1-1.2,1.2-2.2,3.3-3.3c0-1.2,0.9-1.8,2.6-1.9c2.3,0,5.2,1.1,8.6,3.3c3-0.7,4.6-1.6,4.6-2.6l1.3,0.7
			l9.8-3.3v0.6L429.7,57.8z"/>
	</g>
</g>
<g>
	<line id="XMLID_5_" class="st0" x1="97.9" y1="2.5" x2="353.4" y2="2.5"/>
</g>
<g>
	<rect id="XMLID_3_" x="92.1" class="st0" width="267.1" height="5"/>
</g>
<g>
	<line id="XMLID_4_" class="st0" x1="97.9" y1="186.1" x2="353.4" y2="186.1"/>
</g>
<g>
	<rect id="XMLID_2_" x="100.2" y="183.6" class="st0" width="250.9" height="5"/>
</g>
<g id="XMLID_110_">
	<path id="XMLID_111_" d="M130.7,228.9c0-0.6-0.2-1-0.6-1.3s-1.1-0.7-2-1c-1.7-0.5-2.9-1.1-3.8-1.8c-0.9-0.7-1.3-1.6-1.3-2.8
		c0-1.2,0.5-2.2,1.5-2.9c1-0.8,2.2-1.1,3.7-1.1c1.6,0,2.9,0.4,3.9,1.2s1.5,1.9,1.4,3.2l0,0.1h-2.8c0-0.7-0.2-1.3-0.7-1.7
		c-0.4-0.4-1.1-0.6-1.8-0.6c-0.7,0-1.3,0.2-1.7,0.5c-0.4,0.3-0.6,0.8-0.6,1.3c0,0.5,0.2,0.9,0.6,1.2c0.4,0.3,1.2,0.6,2.2,1
		c1.6,0.5,2.8,1,3.6,1.8c0.8,0.7,1.3,1.7,1.3,2.9c0,1.2-0.5,2.2-1.5,2.9s-2.2,1.1-3.8,1.1c-1.6,0-2.9-0.4-4-1.2
		c-1.1-0.8-1.7-1.9-1.6-3.5l0-0.1h2.8c0,0.9,0.3,1.5,0.8,1.9c0.5,0.4,1.2,0.6,2,0.6c0.8,0,1.4-0.2,1.8-0.5S130.7,229.5,130.7,228.9z
		"/>
	<path id="XMLID_113_" d="M149.3,218.2v9.5c0,1.6-0.5,2.9-1.6,3.8s-2.5,1.4-4.2,1.4c-1.7,0-3.1-0.5-4.2-1.4s-1.6-2.2-1.6-3.8v-9.5
		h2.9v9.5c0,1,0.3,1.7,0.8,2.2c0.5,0.5,1.2,0.8,2.1,0.8c0.9,0,1.6-0.3,2.1-0.8c0.5-0.5,0.8-1.3,0.8-2.2v-9.5H149.3z"/>
	<path id="XMLID_115_" d="M165.5,232.7h-2.9l-5.8-9.8l-0.1,0v9.8h-2.9v-14.5h2.9l5.8,9.8l0.1,0v-9.7h2.9V232.7z"/>
	<path id="XMLID_117_" d="M181.7,228L181.7,228l2-9.8h3l-3.4,14.5h-2.7l-2.7-9.5h-0.1l-2.7,9.5h-2.7l-3.4-14.5h3l1.9,9.8h0.1
		l2.6-9.8h2.3L181.7,228z"/>
	<path id="XMLID_119_" d="M197.3,229.6h-4.7l-1,3.1h-3l4.9-14.5h3l4.9,14.5h-3L197.3,229.6z M193.3,227.3h3.3l-1.6-5.1H195
		L193.3,227.3z"/>
	<path id="XMLID_122_" d="M208,224.9L208,224.9l3.2-6.7h3.2l-5,9.4v5.1h-2.9v-5.2l-4.9-9.2h3.2L208,224.9z"/>
	<path id="XMLID_124_" d="M235.1,220.4h-4.1v12.2H228v-12.2h-4.1v-2.2h11.1V220.4z"/>
	<path id="XMLID_126_" d="M245.2,229.6h-4.7l-1,3.1h-3l4.9-14.5h3l4.9,14.5h-3L245.2,229.6z M241.2,227.3h3.3l-1.6-5.1h-0.1
		L241.2,227.3z"/>
	<path id="XMLID_129_" d="M255.5,230.5h6.5v2.2h-9.4v-14.5h2.9V230.5z"/>
	<path id="XMLID_131_" d="M274.2,226.3h-5.4v4.1h6.4v2.2H266v-14.5h9.3v2.2h-6.4v3.6h5.4V226.3z"/>
	<path id="XMLID_133_" d="M291,232.7h-2.9l-5.8-9.8l-0.1,0v9.8h-2.9v-14.5h2.9l5.8,9.8l0.1,0v-9.7h2.9V232.7z"/>
	<path id="XMLID_135_" d="M305.5,220.4h-4.1v12.2h-2.9v-12.2h-4.1v-2.2h11.1V220.4z"/>
	<path id="XMLID_137_" d="M316.6,228.9c0-0.6-0.2-1-0.6-1.3c-0.4-0.3-1.1-0.7-2-1c-1.7-0.5-2.9-1.1-3.8-1.8s-1.3-1.6-1.3-2.8
		c0-1.2,0.5-2.2,1.5-2.9c1-0.8,2.2-1.1,3.7-1.1c1.6,0,2.9,0.4,3.9,1.2s1.5,1.9,1.4,3.2l0,0.1h-2.8c0-0.7-0.2-1.3-0.7-1.7
		c-0.4-0.4-1.1-0.6-1.8-0.6c-0.7,0-1.3,0.2-1.7,0.5s-0.6,0.8-0.6,1.3c0,0.5,0.2,0.9,0.6,1.2c0.4,0.3,1.2,0.6,2.2,1
		c1.6,0.5,2.8,1,3.6,1.8c0.8,0.7,1.3,1.7,1.3,2.9c0,1.2-0.5,2.2-1.5,2.9s-2.2,1.1-3.8,1.1c-1.6,0-2.9-0.4-4-1.2
		c-1.1-0.8-1.7-1.9-1.6-3.5l0-0.1h2.8c0,0.9,0.3,1.5,0.8,1.9c0.5,0.4,1.2,0.6,2,0.6c0.8,0,1.4-0.2,1.8-0.5
		C316.4,229.9,316.6,229.5,316.6,228.9z"/>
</g>
</svg>
